<?xml version="1.0" encoding="utf-8"?>
<!-- Generator: Adobe Illustrator 29.8.4, SVG Export Plug-In . SVG Version: 9.03 Build 0)  -->
<svg version="1.1" id="Ebene_1" xmlns="http://www.w3.org/2000/svg" xmlns:xlink="http://www.w3.org/1999/xlink" x="0px" y="0px"
	 width="1161.0635px" height="349.6595px" viewBox="0 0 1161.0635 349.6595" enable-background="new 0 0 1161.0635 349.6595"
	 xml:space="preserve">
<g>
	<g>
		<rect x="1.0635" fill="none" width="1160" height="346"/>
		<path fill="none" stroke="#FFC000" stroke-width="12" stroke-miterlimit="8" d="M961.0635,110h25.5c17,0,25.5,8,25.5,24v12
			c0,8-4.1899,12-12.5601,12h-12.5599"/>
		<path fill-rule="evenodd" clip-rule="evenodd" fill="#82B366" stroke="#FFC000" stroke-width="10.3333" stroke-miterlimit="8" d="
			M965.0635,157.5l22-7.5v15L965.0635,157.5z"/>
		<path fill-rule="evenodd" clip-rule="evenodd" fill="#666666" stroke="#FFC000" stroke-width="8" stroke-miterlimit="8" d="
			M835.0635,185l7,22h-14L835.0635,185z"/>
		<path fill="none" stroke="#FFC000" stroke-width="13" stroke-miterlimit="8" d="M329.5635,181.5c0,63.333,84.334,95,253,95
			s253-23.095,253-69.287"/>
		<path fill="none" stroke="#BFBFBF" stroke-width="6" stroke-miterlimit="8" d="M329.0635,181c0,63.333,84.334,95,253,95
			s253-23.095,253-69.287"/>
		<path fill-rule="evenodd" clip-rule="evenodd" fill="#666666" stroke="#666666" stroke-width="2.5747" stroke-miterlimit="8" d="
			M835.5635,185.5l7,22h-14L835.5635,185.5z"/>
		<g enable-background="new    ">
			<path d="M458.9375,309.0004v-19.0889h8.4639c1.7012,0,2.9946,0.1719,3.8799,0.5146c0.8857,0.3428,1.5928,0.9482,2.1226,1.8164
				c0.5293,0.8682,0.7944,1.8271,0.7944,2.877c0,1.3545-0.4385,2.4961-1.3154,3.4248c-0.8765,0.9287-2.231,1.5195-4.0625,1.7705
				c0.6685,0.3213,1.1763,0.6387,1.5234,0.9512c0.7378,0.6768,1.4365,1.5234,2.0967,2.5391l3.3203,5.1953h-3.1772l-2.5259-3.9717
				c-0.7383-1.1455-1.3457-2.0225-1.8232-2.6299s-0.9048-1.0332-1.2822-1.2764c-0.3779-0.2432-0.7617-0.4121-1.1523-0.5078
				c-0.2866-0.0605-0.7554-0.0908-1.4062-0.0908h-2.9297v8.4766H458.9375z M461.4639,298.3363h5.4297
				c1.1543,0,2.0571-0.1191,2.708-0.3584c0.6514-0.2383,1.146-0.6201,1.4844-1.1455c0.3389-0.5254,0.5078-1.0957,0.5078-1.7129
				c0-0.9023-0.3276-1.6445-0.9829-2.2266c-0.6553-0.5811-1.6904-0.8721-3.1055-0.8721h-6.0415V298.3363z"/>
			<path d="M487.3228,304.5472l2.4219,0.2998c-0.3818,1.415-1.0889,2.5127-2.1221,3.2939s-2.3525,1.1719-3.9585,1.1719
				c-2.0225,0-3.626-0.623-4.811-1.8682c-1.1851-1.2461-1.7773-2.9932-1.7773-5.2412c0-2.3262,0.5991-4.1318,1.7969-5.417
				c1.1978-1.2842,2.7515-1.9268,4.6616-1.9268c1.8486,0,3.3589,0.6289,4.5308,1.8877s1.7578,3.0293,1.7578,5.3125
				c0,0.1396-0.0039,0.3477-0.0127,0.625h-10.3125c0.0869,1.5195,0.5166,2.6826,1.2891,3.4902
				c0.7725,0.8066,1.7358,1.2109,2.8906,1.2109c0.8594,0,1.5928-0.2256,2.2012-0.6777
				C486.4849,306.2572,486.9673,305.5365,487.3228,304.5472z M479.6279,300.7582h7.7212c-0.1045-1.1631-0.3994-2.0361-0.8857-2.6172
				c-0.7461-0.9033-1.7144-1.3545-2.9033-1.3545c-1.0767,0-1.9814,0.3604-2.7148,1.0811S479.7061,299.5511,479.6279,300.7582z"/>
			<path d="M496.5288,309.0004l-5.2598-13.8281h2.4736l2.9688,8.2812c0.3213,0.8945,0.6162,1.8232,0.8857,2.7861
				c0.208-0.7285,0.499-1.6055,0.8721-2.6299l3.0732-8.4375h2.4082l-5.2344,13.8281H496.5288z"/>
			<path d="M515.4868,304.5472l2.4219,0.2998c-0.3818,1.415-1.0889,2.5127-2.1221,3.2939s-2.3525,1.1719-3.958,1.1719
				c-2.0234,0-3.627-0.623-4.8115-1.8682c-1.1846-1.2461-1.7773-2.9932-1.7773-5.2412c0-2.3262,0.5986-4.1318,1.7969-5.417
				c1.1982-1.2842,2.752-1.9268,4.6611-1.9268c1.8496,0,3.3594,0.6289,4.5312,1.8877s1.7578,3.0293,1.7578,5.3125
				c0,0.1396-0.0039,0.3477-0.0127,0.625h-10.3125c0.0869,1.5195,0.5166,2.6826,1.2891,3.4902
				c0.7725,0.8066,1.7363,1.2109,2.8906,1.2109c0.8594,0,1.5928-0.2256,2.2002-0.6777
				C514.6489,306.2572,515.1313,305.5365,515.4868,304.5472z M507.7915,300.7582h7.7217c-0.1045-1.1631-0.3994-2.0361-0.8857-2.6172
				c-0.7461-0.9033-1.7139-1.3545-2.9033-1.3545c-1.0762,0-1.9814,0.3604-2.7148,1.0811S507.8696,299.5511,507.7915,300.7582z"/>
			<path d="M520.8257,309.0004v-13.8281h2.1094v2.0957c0.5381-0.9805,1.0352-1.627,1.4912-1.9395s0.957-0.4688,1.5039-0.4688
				c0.79,0,1.5928,0.252,2.4092,0.7549l-0.8076,2.1748c-0.5732-0.3389-1.1455-0.5078-1.7188-0.5078
				c-0.5127,0-0.9727,0.1543-1.3799,0.4619c-0.4082,0.3086-0.6992,0.7354-0.873,1.2822c-0.2598,0.834-0.3906,1.7451-0.3906,2.7344
				v7.2402H520.8257z"/>
			<path d="M528.7944,304.8724l2.3174-0.3643c0.1309,0.9287,0.4932,1.6406,1.0879,2.1357c0.5938,0.4941,1.4258,0.7422,2.4932,0.7422
				c1.0762,0,1.875-0.2197,2.3955-0.6582c0.5215-0.4375,0.7812-0.9521,0.7812-1.543c0-0.5293-0.2295-0.9453-0.6895-1.25
				c-0.3213-0.208-1.1201-0.4727-2.3965-0.7939c-1.7188-0.4336-2.9102-0.8096-3.5742-1.126
				c-0.6641-0.3174-1.167-0.7559-1.5098-1.3154c-0.3438-0.5605-0.5146-1.1787-0.5146-1.8555c0-0.6162,0.1406-1.1875,0.4229-1.7129
				c0.2822-0.5244,0.666-0.9609,1.1523-1.3086c0.3652-0.2686,0.8613-0.4961,1.4912-0.6836
				c0.6289-0.1865,1.3037-0.2793,2.0244-0.2793c1.085,0,2.0381,0.1562,2.8584,0.4688s1.4258,0.7354,1.8164,1.2695
				c0.3906,0.5332,0.6592,1.248,0.8076,2.1416l-2.292,0.3125c-0.1045-0.7119-0.4062-1.2676-0.9053-1.667
				c-0.499-0.3984-1.2041-0.5986-2.1152-0.5986c-1.0771,0-1.8447,0.1777-2.3047,0.5342c-0.4609,0.3555-0.6904,0.7725-0.6904,1.25
				c0,0.3037,0.0957,0.5771,0.2861,0.8203c0.1914,0.252,0.4902,0.46,0.8984,0.625c0.2344,0.0869,0.9248,0.2861,2.0703,0.5986
				c1.6582,0.4424,2.8145,0.8057,3.4707,1.0869c0.6553,0.2822,1.1689,0.6934,1.543,1.2314c0.373,0.5381,0.5596,1.2061,0.5596,2.0049
				c0,0.7812-0.2275,1.5166-0.6836,2.207s-1.1133,1.2236-1.9727,1.6016s-1.832,0.5664-2.917,0.5664
				c-1.7969,0-3.166-0.373-4.1074-1.1201C529.6558,307.4467,529.0552,306.3402,528.7944,304.8724z"/>
			<path d="M552.5308,304.5472l2.4219,0.2998c-0.3818,1.415-1.0889,2.5127-2.1221,3.2939s-2.3525,1.1719-3.958,1.1719
				c-2.0234,0-3.627-0.623-4.8115-1.8682c-1.1846-1.2461-1.7773-2.9932-1.7773-5.2412c0-2.3262,0.5986-4.1318,1.7969-5.417
				c1.1982-1.2842,2.752-1.9268,4.6611-1.9268c1.8496,0,3.3594,0.6289,4.5312,1.8877s1.7578,3.0293,1.7578,5.3125
				c0,0.1396-0.0039,0.3477-0.0127,0.625h-10.3125c0.0869,1.5195,0.5166,2.6826,1.2891,3.4902
				c0.7725,0.8066,1.7363,1.2109,2.8906,1.2109c0.8594,0,1.5928-0.2256,2.2002-0.6777
				C551.6929,306.2572,552.1753,305.5365,552.5308,304.5472z M544.8354,300.7582h7.7217c-0.1045-1.1631-0.3994-2.0361-0.8857-2.6172
				c-0.7461-0.9033-1.7139-1.3545-2.9033-1.3545c-1.0762,0-1.9814,0.3604-2.7148,1.0811S544.9136,299.5511,544.8354,300.7582z"/>
		</g>
		<g enable-background="new    ">
			<path d="M557.0205,303.2709v-2.3564h7.2007v2.3564H557.0205z"/>
		</g>
		<g enable-background="new    ">
			<path d="M567.1177,309.0004v-19.0889h13.8022v2.2529h-11.2764v5.8457h10.5601v2.2402h-10.5601v6.4971h11.7188v2.2529H567.1177z"
				/>
			<path d="M584.5527,309.0004v-13.8281h2.1094v1.9658c1.0156-1.5186,2.4824-2.2783,4.4014-2.2783
				c0.833,0,1.5996,0.1494,2.2979,0.4492c0.6992,0.2988,1.2217,0.6924,1.5693,1.1777c0.3477,0.4863,0.5898,1.0635,0.7285,1.7324
				c0.0879,0.4336,0.1309,1.1934,0.1309,2.2783v8.5029h-2.3438v-8.4121c0-0.9541-0.0908-1.668-0.2734-2.1416
				c-0.1826-0.4727-0.5059-0.8506-0.9697-1.1328c-0.4648-0.2822-1.0098-0.4229-1.6348-0.4229c-0.998,0-1.8594,0.3164-2.584,0.9502
				c-0.7256,0.6338-1.0879,1.8359-1.0879,3.6064v7.5527H584.5527z"/>
			<path d="M598.9541,310.1459l2.2783,0.3389c0.0957,0.7031,0.3604,1.2148,0.7949,1.5361c0.5811,0.4346,1.375,0.6514,2.3828,0.6514
				c1.085,0,1.9219-0.2168,2.5127-0.6514c0.5898-0.4336,0.9893-1.041,1.1982-1.8223c0.1211-0.4775,0.1777-1.4805,0.1689-3.0078
				c-1.0244,1.2061-2.3008,1.8096-3.8281,1.8096c-1.9014,0-3.3721-0.6855-4.4141-2.0576c-1.042-1.3711-1.5625-3.0156-1.5625-4.9346
				c0-1.3193,0.2383-2.5371,0.7158-3.6523s1.1699-1.9775,2.0771-2.585s1.9727-0.9111,3.1963-0.9111
				c1.6318,0,2.9775,0.6592,4.0371,1.9785v-1.666h2.1611v11.9531c0,2.1523-0.2197,3.6787-0.6572,4.5771
				c-0.4385,0.8984-1.1328,1.6074-2.084,2.1289c-0.9502,0.5205-2.1201,0.7812-3.5088,0.7812c-1.6494,0-2.9814-0.3711-3.9971-1.1133
				S598.9189,311.639,598.9541,310.1459z M600.8945,301.8383c0,1.8154,0.3594,3.1387,1.0801,3.9717
				c0.7207,0.834,1.623,1.25,2.709,1.25c1.0762,0,1.9785-0.4141,2.708-1.2432s1.0938-2.1289,1.0938-3.9004
				c0-1.6924-0.376-2.9688-1.126-3.8281c-0.751-0.8594-1.6562-1.2891-2.7148-1.2891c-1.042,0-1.9277,0.4238-2.6562,1.2695
				C601.2588,298.9154,600.8945,300.1722,600.8945,301.8383z"/>
			<path d="M614.2275,292.6068v-2.6953h2.3438v2.6953H614.2275z M614.2275,309.0004v-13.8281h2.3438v13.8281H614.2275z"/>
			<path d="M620.1387,309.0004v-13.8281h2.1094v1.9658c1.0156-1.5186,2.4824-2.2783,4.4014-2.2783
				c0.833,0,1.5986,0.1494,2.2979,0.4492c0.6982,0.2988,1.2217,0.6924,1.5693,1.1777c0.3467,0.4863,0.5898,1.0635,0.7285,1.7324
				c0.0869,0.4336,0.1309,1.1934,0.1309,2.2783v8.5029h-2.3438v-8.4121c0-0.9541-0.0918-1.668-0.2734-2.1416
				c-0.1826-0.4727-0.5059-0.8506-0.9707-1.1328c-0.4639-0.2822-1.0088-0.4229-1.6338-0.4229c-0.998,0-1.8604,0.3164-2.585,0.9502
				s-1.0869,1.8359-1.0869,3.6064v7.5527H620.1387z"/>
			<path d="M644.4355,304.5472l2.4219,0.2998c-0.3818,1.415-1.0889,2.5127-2.1221,3.2939s-2.3525,1.1719-3.958,1.1719
				c-2.0234,0-3.627-0.623-4.8115-1.8682c-1.1846-1.2461-1.7773-2.9932-1.7773-5.2412c0-2.3262,0.5986-4.1318,1.7969-5.417
				c1.1982-1.2842,2.752-1.9268,4.6611-1.9268c1.8496,0,3.3594,0.6289,4.5312,1.8877s1.7578,3.0293,1.7578,5.3125
				c0,0.1396-0.0039,0.3477-0.0127,0.625h-10.3125c0.0869,1.5195,0.5166,2.6826,1.2891,3.4902
				c0.7725,0.8066,1.7363,1.2109,2.8906,1.2109c0.8594,0,1.5928-0.2256,2.2002-0.6777
				C643.5977,306.2572,644.0801,305.5365,644.4355,304.5472z M636.7402,300.7582h7.7217c-0.1045-1.1631-0.3994-2.0361-0.8857-2.6172
				c-0.7461-0.9033-1.7139-1.3545-2.9033-1.3545c-1.0762,0-1.9814,0.3604-2.7148,1.0811S636.8184,299.5511,636.7402,300.7582z"/>
			<path d="M659.2666,304.5472l2.4219,0.2998c-0.3818,1.415-1.0889,2.5127-2.1221,3.2939s-2.3525,1.1719-3.958,1.1719
				c-2.0234,0-3.627-0.623-4.8115-1.8682c-1.1846-1.2461-1.7773-2.9932-1.7773-5.2412c0-2.3262,0.5986-4.1318,1.7969-5.417
				c1.1982-1.2842,2.752-1.9268,4.6611-1.9268c1.8496,0,3.3594,0.6289,4.5312,1.8877s1.7578,3.0293,1.7578,5.3125
				c0,0.1396-0.0039,0.3477-0.0127,0.625h-10.3125c0.0869,1.5195,0.5166,2.6826,1.2891,3.4902
				c0.7725,0.8066,1.7363,1.2109,2.8906,1.2109c0.8594,0,1.5928-0.2256,2.2002-0.6777
				C658.4287,306.2572,658.9111,305.5365,659.2666,304.5472z M651.5713,300.7582h7.7217c-0.1045-1.1631-0.3994-2.0361-0.8857-2.6172
				c-0.7461-0.9033-1.7139-1.3545-2.9033-1.3545c-1.0762,0-1.9814,0.3604-2.7148,1.0811S651.6494,299.5511,651.5713,300.7582z"/>
			<path d="M664.6045,309.0004v-13.8281h2.1094v2.0957c0.5381-0.9805,1.0352-1.627,1.4912-1.9395s0.957-0.4688,1.5039-0.4688
				c0.79,0,1.5928,0.252,2.4092,0.7549l-0.8076,2.1748c-0.5732-0.3389-1.1455-0.5078-1.7188-0.5078
				c-0.5127,0-0.9727,0.1543-1.3799,0.4619c-0.4082,0.3086-0.6992,0.7354-0.873,1.2822c-0.2598,0.834-0.3906,1.7451-0.3906,2.7344
				v7.2402H664.6045z"/>
			<path d="M673.5244,292.6068v-2.6953h2.3438v2.6953H673.5244z M673.5244,309.0004v-13.8281h2.3438v13.8281H673.5244z"/>
			<path d="M679.4355,309.0004v-13.8281h2.1094v1.9658c1.0156-1.5186,2.4824-2.2783,4.4014-2.2783
				c0.833,0,1.5986,0.1494,2.2979,0.4492c0.6982,0.2988,1.2217,0.6924,1.5693,1.1777c0.3467,0.4863,0.5898,1.0635,0.7285,1.7324
				c0.0869,0.4336,0.1309,1.1934,0.1309,2.2783v8.5029h-2.3438v-8.4121c0-0.9541-0.0918-1.668-0.2734-2.1416
				c-0.1826-0.4727-0.5059-0.8506-0.9707-1.1328c-0.4639-0.2822-1.0088-0.4229-1.6338-0.4229c-0.998,0-1.8604,0.3164-2.585,0.9502
				s-1.0869,1.8359-1.0869,3.6064v7.5527H679.4355z"/>
			<path d="M693.8369,310.1459l2.2783,0.3389c0.0957,0.7031,0.3604,1.2148,0.7949,1.5361c0.5811,0.4346,1.375,0.6514,2.3828,0.6514
				c1.085,0,1.9219-0.2168,2.5127-0.6514c0.5898-0.4336,0.9893-1.041,1.1982-1.8223c0.1211-0.4775,0.1777-1.4805,0.1689-3.0078
				c-1.0244,1.2061-2.3008,1.8096-3.8281,1.8096c-1.9014,0-3.3721-0.6855-4.4141-2.0576c-1.042-1.3711-1.5625-3.0156-1.5625-4.9346
				c0-1.3193,0.2383-2.5371,0.7158-3.6523s1.1699-1.9775,2.0771-2.585s1.9727-0.9111,3.1963-0.9111
				c1.6318,0,2.9775,0.6592,4.0371,1.9785v-1.666h2.1611v11.9531c0,2.1523-0.2197,3.6787-0.6572,4.5771
				c-0.4385,0.8984-1.1328,1.6074-2.084,2.1289c-0.9502,0.5205-2.1201,0.7812-3.5088,0.7812c-1.6494,0-2.9814-0.3711-3.9971-1.1133
				S693.8018,311.639,693.8369,310.1459z M695.7773,301.8383c0,1.8154,0.3594,3.1387,1.0801,3.9717
				c0.7207,0.834,1.623,1.25,2.709,1.25c1.0762,0,1.9785-0.4141,2.708-1.2432s1.0938-2.1289,1.0938-3.9004
				c0-1.6924-0.376-2.9688-1.126-3.8281c-0.751-0.8594-1.6562-1.2891-2.7148-1.2891c-1.042,0-1.9277,0.4238-2.6562,1.2695
				C696.1416,298.9154,695.7773,300.1722,695.7773,301.8383z"/>
		</g>
		<g enable-background="new    ">
			<path d="M523.8477,341.0004l-7.396-19.0889h2.7344l4.9609,13.8672c0.3994,1.1113,0.7334,2.1533,1.0024,3.125
				c0.2954-1.041,0.6382-2.083,1.0288-3.125l5.1562-13.8672h2.5781l-7.4741,19.0889H523.8477z"/>
			<path d="M542.9229,339.2943c-0.8682,0.7383-1.7036,1.2588-2.5063,1.5625c-0.8032,0.3037-1.6646,0.4561-2.585,0.4561
				c-1.519,0-2.6865-0.3711-3.5024-1.1133s-1.2241-1.6904-1.2241-2.8447c0-0.6777,0.1543-1.2959,0.4624-1.8555
				c0.3081-0.5605,0.7119-1.0098,1.2109-1.3477c0.499-0.3389,1.061-0.5947,1.686-0.7686c0.46-0.1221,1.1548-0.2393,2.0835-0.3516
				c1.8921-0.2256,3.2856-0.4951,4.1797-0.8076c0.0088-0.3213,0.0132-0.5254,0.0132-0.6123c0-0.9541-0.2217-1.627-0.6641-2.0176
				c-0.5991-0.5293-1.4888-0.7949-2.6694-0.7949c-1.1025,0-1.9165,0.1934-2.4414,0.5801c-0.5254,0.3857-0.9136,1.0693-1.1655,2.0508
				l-2.2915-0.3125c0.2085-0.9814,0.5513-1.7734,1.0288-2.377c0.4771-0.6025,1.1675-1.0674,2.0703-1.3926
				c0.9023-0.3262,1.9487-0.4883,3.1377-0.4883c1.1807,0,2.1396,0.1387,2.8779,0.416c0.7378,0.2783,1.2803,0.6279,1.6274,1.0488
				s0.5903,0.9521,0.729,1.5947c0.0781,0.3994,0.1172,1.1201,0.1172,2.1611v3.126c0,2.1787,0.0498,3.5566,0.1499,4.1338
				c0.0991,0.5771,0.2974,1.1309,0.5923,1.6602h-2.4478C543.1484,340.514,542.9922,339.9457,542.9229,339.2943z M542.7275,334.0599
				c-0.8506,0.3477-2.127,0.6426-3.8281,0.8857c-0.9634,0.1387-1.645,0.2949-2.0444,0.4688s-0.7075,0.4277-0.9243,0.7617
				c-0.2173,0.334-0.3257,0.7051-0.3257,1.1133c0,0.625,0.2368,1.1455,0.71,1.5625c0.4727,0.417,1.165,0.625,2.0767,0.625
				c0.9028,0,1.7056-0.1973,2.4087-0.5928c0.7031-0.3945,1.2197-0.9346,1.5498-1.6211c0.2515-0.5293,0.3774-1.3105,0.3774-2.3438
				V334.0599z"/>
			<path d="M548.6782,341.0004v-19.0889h2.3438v19.0889H548.6782z"/>
			<path d="M554.6675,324.6068v-2.6953h2.3438v2.6953H554.6675z M554.6675,341.0004v-13.8281h2.3438v13.8281H554.6675z"/>
			<path d="M569.5513,341.0004v-1.7451c-0.877,1.3721-2.166,2.0576-3.8672,2.0576c-1.1025,0-2.1162-0.3037-3.041-0.9111
				c-0.9238-0.6074-1.6406-1.4561-2.1484-2.5459c-0.5078-1.0889-0.7617-2.3418-0.7617-3.7568c0-1.3799,0.2305-2.6318,0.6904-3.7568
				c0.46-1.124,1.1504-1.9854,2.0703-2.584c0.9199-0.5996,1.9482-0.8984,3.0859-0.8984c0.833,0,1.5752,0.1758,2.2266,0.5273
				s1.1807,0.8096,1.5889,1.373v-6.8486h2.3301v19.0889H569.5513z M562.1421,334.099c0,1.7715,0.373,3.0947,1.1201,3.9717
				c0.7461,0.877,1.627,1.3154,2.6426,1.3154c1.0244,0,1.8945-0.4189,2.6113-1.2568c0.7158-0.8379,1.0742-2.1162,1.0742-3.835
				c0-1.8926-0.3652-3.2812-1.0938-4.167c-0.7295-0.8848-1.6279-1.3281-2.6953-1.3281c-1.042,0-1.9121,0.4258-2.6113,1.2764
				C562.4917,330.9261,562.1421,332.2679,562.1421,334.099z"/>
			<path d="M575.4224,324.6068v-2.6953h2.3438v2.6953H575.4224z M575.4224,341.0004v-13.8281h2.3438v13.8281H575.4224z"/>
			<path d="M590.7998,336.5472l2.4219,0.2998c-0.3809,1.415-1.0879,2.5127-2.1211,3.2939s-2.3535,1.1719-3.959,1.1719
				c-2.0234,0-3.6265-0.623-4.811-1.8682c-1.1846-1.2461-1.7773-2.9932-1.7773-5.2412c0-2.3262,0.5986-4.1318,1.7969-5.417
				c1.1982-1.2842,2.7524-1.9268,4.6606-1.9268c1.8496,0,3.3594,0.6289,4.5312,1.8877s1.7578,3.0293,1.7578,5.3125
				c0,0.1396-0.0039,0.3477-0.0117,0.625h-10.313c0.0869,1.5195,0.5166,2.6826,1.2896,3.4902
				c0.7715,0.8066,1.7363,1.2109,2.8906,1.2109c0.8594,0,1.5918-0.2256,2.1992-0.6777
				C589.9619,338.2572,590.4443,337.5365,590.7998,336.5472z M583.105,332.7582h7.7222c-0.1055-1.1631-0.4004-2.0361-0.8867-2.6172
				c-0.7461-0.9033-1.7129-1.3545-2.9023-1.3545c-1.0762,0-1.9824,0.3604-2.7148,1.0811
				C583.5894,330.5883,583.1831,331.5511,583.105,332.7582z"/>
			<path d="M596.1396,341.0004v-13.8281h2.1094v2.0957c0.5371-0.9805,1.0352-1.627,1.4902-1.9395
				c0.457-0.3125,0.957-0.4688,1.5039-0.4688c0.791,0,1.5938,0.252,2.4102,0.7549l-0.8086,2.1748
				c-0.5723-0.3389-1.1445-0.5078-1.7188-0.5078c-0.5117,0-0.9727,0.1543-1.3789,0.4619c-0.4082,0.3086-0.6992,0.7354-0.873,1.2822
				c-0.2598,0.834-0.3906,1.7451-0.3906,2.7344v7.2402H596.1396z"/>
			<path d="M614.1084,341.0004v-2.0312c-1.0762,1.5625-2.5391,2.3438-4.3887,2.3438c-0.8164,0-1.5781-0.1562-2.2852-0.4688
				s-1.2324-0.7051-1.5762-1.1787c-0.3418-0.4727-0.584-1.0518-0.7227-1.7383c-0.0957-0.46-0.1426-1.1885-0.1426-2.1875v-8.5674
				h2.3438v7.6689c0,1.2246,0.0469,2.0488,0.1426,2.4746c0.1484,0.6162,0.4609,1.0996,0.9375,1.4512
				c0.4785,0.3516,1.0684,0.5273,1.7715,0.5273s1.3633-0.1797,1.9785-0.54c0.6172-0.3604,1.0527-0.8506,1.3086-1.4717
				c0.2559-0.6201,0.3848-1.5205,0.3848-2.7012v-7.4092h2.3438v13.8281H614.1084z"/>
			<path d="M619.876,341.0004v-13.8281h2.1094v1.9658c1.0156-1.5186,2.4824-2.2783,4.4023-2.2783
				c0.832,0,1.5977,0.1494,2.2969,0.4492c0.6992,0.2988,1.2227,0.6924,1.5703,1.1777c0.3457,0.4863,0.5898,1.0635,0.7285,1.7324
				c0.0859,0.4336,0.1309,1.1934,0.1309,2.2783v8.5029h-2.3438v-8.4121c0-0.9541-0.0918-1.668-0.2734-2.1416
				c-0.1836-0.4727-0.5059-0.8506-0.9707-1.1328s-1.0098-0.4229-1.6348-0.4229c-0.998,0-1.8594,0.3164-2.584,0.9502
				s-1.0879,1.8359-1.0879,3.6064v7.5527H619.876z"/>
			<path d="M634.2764,342.1459l2.2793,0.3389c0.0957,0.7031,0.3594,1.2148,0.7949,1.5361c0.5801,0.4346,1.375,0.6514,2.3828,0.6514
				c1.084,0,1.9219-0.2168,2.5117-0.6514c0.5898-0.4336,0.9902-1.041,1.1992-1.8223c0.1211-0.4775,0.1777-1.4805,0.168-3.0078
				c-1.0234,1.2061-2.3008,1.8096-3.8281,1.8096c-1.9004,0-3.3711-0.6855-4.4141-2.0576c-1.041-1.3711-1.5625-3.0156-1.5625-4.9346
				c0-1.3193,0.2383-2.5371,0.7168-3.6523c0.4766-1.1152,1.1699-1.9775,2.0762-2.585c0.9082-0.6074,1.9727-0.9111,3.1973-0.9111
				c1.6309,0,2.9766,0.6592,4.0371,1.9785v-1.666h2.1602v11.9531c0,2.1523-0.2188,3.6787-0.6562,4.5771
				c-0.4395,0.8984-1.1328,1.6074-2.084,2.1289c-0.9512,0.5205-2.1211,0.7812-3.5098,0.7812c-1.6484,0-2.9805-0.3711-3.9961-1.1133
				S634.2412,343.639,634.2764,342.1459z M636.2178,333.8383c0,1.8154,0.3594,3.1387,1.0801,3.9717
				c0.7207,0.834,1.623,1.25,2.709,1.25c1.0762,0,1.9785-0.4141,2.707-1.2432c0.7305-0.8291,1.0938-2.1289,1.0938-3.9004
				c0-1.6924-0.375-2.9688-1.125-3.8281c-0.752-0.8594-1.6562-1.2891-2.7148-1.2891c-1.043,0-1.9277,0.4238-2.6562,1.2695
				C636.5811,330.9154,636.2178,332.1722,636.2178,333.8383z"/>
		</g>
		<path fill-rule="evenodd" clip-rule="evenodd" fill="#E1D5E7" d="M203.0635,87h253v94h-253V87z"/>
		<g enable-background="new    ">
			<path d="M268.2134,122.1376c1.6406,1.1309,3.1538,1.957,4.5391,2.4795l-1.0391,2.4609
				c-1.9204-0.6924-3.8345-1.7861-5.7422-3.2812c-1.981,1.1064-4.1685,1.6592-6.5625,1.6592c-2.4185,0-4.6118-0.584-6.5806-1.75
				c-1.9688-1.167-3.4849-2.8076-4.5483-4.9219c-1.0635-2.1147-1.5952-4.4966-1.5952-7.146c0-2.6372,0.5347-5.0376,1.6045-7.2007
				c1.0688-2.1631,2.5913-3.8101,4.5664-4.9399c1.9746-1.1304,4.1836-1.6953,6.626-1.6953c2.4673,0,4.6909,0.5864,6.6719,1.7588
				c1.981,1.1733,3.4912,2.814,4.5303,4.9219c1.0391,2.1089,1.5586,4.4878,1.5586,7.1367c0,2.1997-0.3345,4.1777-1.0029,5.9336
				C270.5708,119.3095,269.5625,120.8378,268.2134,122.1376z M260.4297,117.6171c2.0415,0.5713,3.7246,1.4219,5.0493,2.5518
				c2.0781-1.8955,3.1172-4.7451,3.1172-8.5493c0-2.1626-0.3677-4.0527-1.103-5.6689s-1.811-2.8711-3.2266-3.7646
				c-1.4155-0.8931-3.0049-1.3398-4.7666-1.3398c-2.6372,0-4.8247,0.9023-6.5625,2.707c-1.7383,1.8047-2.6069,4.5-2.6069,8.085
				c0,3.4756,0.8594,6.1431,2.5796,8.0024c1.7192,1.8594,3.916,2.7891,6.5898,2.7891c1.2637,0,2.4546-0.2373,3.5728-0.7109
				c-1.106-0.7168-2.2725-1.2275-3.5-1.5312L260.4297,117.6171z"/>
			<path d="M289.2681,124.9999v-2.8438c-1.5068,2.1875-3.5547,3.2812-6.1436,3.2812c-1.1426,0-2.209-0.2188-3.1992-0.6562
				s-1.7256-0.9873-2.2051-1.6494c-0.4805-0.6621-0.8174-1.4736-1.0117-2.4336c-0.1338-0.6445-0.2012-1.665-0.2012-3.063v-11.9946
				h3.2812v10.7368c0,1.7134,0.0674,2.8687,0.2012,3.4634c0.2061,0.8633,0.6436,1.541,1.3125,2.0332
				c0.668,0.4922,1.4941,0.7383,2.4785,0.7383s1.9082-0.252,2.7715-0.7568c0.8623-0.5039,1.4727-1.1904,1.832-2.0596
				c0.3584-0.8691,0.5371-2.1299,0.5371-3.7827v-10.3726h3.2812v19.3594H289.2681z"/>
			<path d="M310.5962,118.7655l3.3906,0.4189c-0.5352,1.9814-1.5254,3.5186-2.9717,4.6123s-3.2939,1.6406-5.542,1.6406
				c-2.8311,0-5.0762-0.8721-6.7354-2.6162c-1.6592-1.7432-2.4883-4.1895-2.4883-7.3369c0-3.2568,0.8389-5.7847,2.5156-7.5835
				c1.6768-1.7983,3.8525-2.6978,6.5264-2.6978c2.5879,0,4.7031,0.8813,6.3438,2.6431c1.6406,1.7622,2.4609,4.2417,2.4609,7.4375
				c0,0.1948-0.0068,0.4863-0.0186,0.875h-14.4375c0.1211,2.1274,0.7227,3.7554,1.8047,4.8853
				c1.0811,1.1309,2.4307,1.6953,4.0469,1.6953c1.2031,0,2.2295-0.3154,3.0811-0.9473
				C309.4233,121.16,310.0972,120.1513,310.5962,118.7655z M299.8228,113.4608h10.8096c-0.1455-1.6284-0.5596-2.8496-1.2393-3.6641
				c-1.0459-1.2637-2.4004-1.896-4.0654-1.896c-1.5068,0-2.7744,0.5044-3.8008,1.5132
				C300.4995,110.4227,299.9321,111.7719,299.8228,113.4608z"/>
			<path d="M318.0337,124.9999V98.2758h3.2812v26.7241H318.0337z"/>
			<path d="M326.3276,124.9999V98.2758h3.2812v26.7241H326.3276z"/>
			<path d="M347.3276,117.9086l3.2266,0.4194c-0.3525,2.2236-1.2549,3.9648-2.707,5.2227s-3.2354,1.8867-5.3506,1.8867
				c-2.6494,0-4.7793-0.8662-6.3887-2.5977c-1.6104-1.7314-2.416-4.2139-2.416-7.4468c0-2.0898,0.3467-3.9189,1.0391-5.4868
				c0.6934-1.5679,1.7471-2.7437,3.1631-3.5273s2.9561-1.1758,4.6211-1.1758c2.1025,0,3.8223,0.5317,5.1592,1.5952
				c1.3359,1.0635,2.1934,2.5732,2.5703,4.5298l-3.1904,0.4922c-0.3037-1.3003-0.8418-2.2788-1.6133-2.9351
				s-1.7041-0.9844-2.7979-0.9844c-1.6533,0-2.9961,0.5928-4.0293,1.7773c-1.0332,1.1851-1.5488,3.0601-1.5488,5.624
				c0,2.6006,0.498,4.4907,1.4941,5.6694c0.9971,1.1787,2.2969,1.7676,3.9014,1.7676c1.2881,0,2.3633-0.3945,3.2266-1.1846
				C346.5493,120.7645,347.0962,119.5497,347.3276,117.9086z"/>
			<path d="M352.1401,115.3202c0-3.585,0.9971-6.2402,2.9902-7.9663c1.6641-1.4336,3.6943-2.1509,6.0879-2.1509
				c2.6621,0,4.8369,0.8721,6.5264,2.6157c1.6895,1.7441,2.5342,4.1538,2.5342,7.228c0,2.4912-0.374,4.4512-1.1211,5.8789
				c-0.748,1.4277-1.8359,2.5371-3.2637,3.3271c-1.4277,0.7891-2.9863,1.1846-4.6758,1.1846c-2.71,0-4.9004-0.8691-6.5713-2.6064
				C352.9761,121.0927,352.1401,118.5897,352.1401,115.3202z M355.5132,115.3202c0,2.479,0.54,4.3359,1.6221,5.5693
				c1.0811,1.2334,2.4424,1.8496,4.083,1.8496c1.6289,0,2.9834-0.6191,4.0654-1.8594c1.0811-1.2393,1.6221-3.1289,1.6221-5.6689
				c0-2.394-0.5439-4.208-1.6309-5.4414c-1.0879-1.2334-2.4404-1.8501-4.0566-1.8501c-1.6406,0-3.002,0.6138-4.083,1.8408
				C356.0532,110.9882,355.5132,112.8412,355.5132,115.3202z"/>
			<path d="M386.6841,124.9999v-2.4424c-1.2275,1.9199-3.0322,2.8799-5.4141,2.8799c-1.543,0-2.9619-0.4258-4.2559-1.2764
				c-1.2949-0.8506-2.2969-2.0381-3.0078-3.5635s-1.0664-3.2783-1.0664-5.2593c0-1.9321,0.3213-3.6851,0.9658-5.2588
				c0.6436-1.5737,1.6104-2.7803,2.8984-3.6187s2.7285-1.2578,4.3203-1.2578c1.167,0,2.2061,0.2461,3.1172,0.7383
				s1.6523,1.1333,2.2236,1.9233v-9.5889h3.2637v26.7241H386.6841z M376.312,115.3383c0,2.4795,0.5225,4.3325,1.5674,5.5601
				s2.2793,1.8408,3.7012,1.8408c1.4336,0,2.6523-0.5859,3.6543-1.7588c1.0029-1.1729,1.5039-2.9619,1.5039-5.3687
				c0-2.6489-0.5098-4.5938-1.5312-5.833c-1.0205-1.2397-2.2783-1.8594-3.7734-1.8594c-1.458,0-2.6768,0.5952-3.6543,1.7861
				C376.8013,110.8969,376.312,112.7743,376.312,115.3383z"/>
			<path d="M408.1401,118.7655l3.3906,0.4189c-0.5352,1.9814-1.5254,3.5186-2.9717,4.6123s-3.2939,1.6406-5.542,1.6406
				c-2.8311,0-5.0762-0.8721-6.7354-2.6162c-1.6592-1.7432-2.4883-4.1895-2.4883-7.3369c0-3.2568,0.8389-5.7847,2.5156-7.5835
				c1.6768-1.7983,3.8525-2.6978,6.5264-2.6978c2.5879,0,4.7031,0.8813,6.3438,2.6431c1.6406,1.7622,2.4609,4.2417,2.4609,7.4375
				c0,0.1948-0.0068,0.4863-0.0186,0.875h-14.4375c0.1211,2.1274,0.7227,3.7554,1.8047,4.8853
				c1.0811,1.1309,2.4307,1.6953,4.0469,1.6953c1.2031,0,2.2295-0.3154,3.0811-0.9473
				C406.9673,121.16,407.6411,120.1513,408.1401,118.7655z M397.3667,113.4608h10.8096c-0.1455-1.6284-0.5596-2.8496-1.2393-3.6641
				c-1.0459-1.2637-2.4004-1.896-4.0654-1.896c-1.5068,0-2.7744,0.5044-3.8008,1.5132
				C398.0435,110.4227,397.4761,111.7719,397.3667,113.4608z"/>
		</g>
		<g enable-background="new    ">
			<path d="M267.7949,170.0004v-26.7246h10.0806c1.7744,0,3.1289,0.0854,4.0649,0.2554c1.3125,0.2188,2.4126,0.6353,3.2998,1.2485
				c0.8867,0.6138,1.6011,1.4741,2.1416,2.5796c0.5405,1.106,0.8115,2.3213,0.8115,3.646c0,2.2725-0.7231,4.1958-2.1694,5.7695
				c-1.4463,1.5742-4.0591,2.3604-7.8384,2.3604h-6.8545v10.8652H267.7949z M271.3311,155.9818h6.9092
				c2.2847,0,3.9067-0.4253,4.8672-1.2764c0.9595-0.8501,1.4399-2.0474,1.4399-3.5908c0-1.1182-0.2827-2.0752-0.8477-2.8711
				s-1.3096-1.3218-2.2329-1.5771c-0.5957-0.1577-1.6953-0.2368-3.2998-0.2368h-6.8359V155.9818z"/>
			<path d="M292.2397,170.0004v-19.3599h2.9541v2.9351c0.752-1.3735,1.4492-2.2788,2.0859-2.7163
				c0.6387-0.4375,1.3398-0.6562,2.1055-0.6562c1.1055,0,2.2305,0.3525,3.373,1.0571l-1.1309,3.0444
				c-0.8008-0.4741-1.6035-0.7109-2.4062-0.7109c-0.7168,0-1.3613,0.2158-1.9316,0.647c-0.5723,0.4316-0.9785,1.0303-1.2207,1.7959
				c-0.3652,1.167-0.5469,2.4424-0.5469,3.8281v10.1357H292.2397z"/>
			<path d="M303.4868,160.3207c0-3.585,0.9971-6.2407,2.9902-7.9668c1.6641-1.4336,3.6943-2.1509,6.0879-2.1509
				c2.6621,0,4.8369,0.8721,6.5264,2.6157c1.6895,1.7441,2.5342,4.1543,2.5342,7.2285c0,2.4912-0.374,4.4512-1.1211,5.8789
				c-0.748,1.4277-1.8359,2.5371-3.2637,3.3271c-1.4277,0.7891-2.9863,1.1846-4.6758,1.1846c-2.71,0-4.9004-0.8691-6.5713-2.6064
				C304.3228,166.0932,303.4868,163.5902,303.4868,160.3207z M306.8599,160.3207c0,2.4785,0.54,4.3359,1.6221,5.5693
				c1.0811,1.2334,2.4424,1.8496,4.083,1.8496c1.6289,0,2.9834-0.6191,4.0654-1.8594c1.0811-1.2393,1.6221-3.1289,1.6221-5.6689
				c0-2.3945-0.5439-4.2085-1.6309-5.4419c-1.0879-1.2334-2.4404-1.8501-4.0566-1.8501c-1.6406,0-3.002,0.6138-4.083,1.8408
				C307.3999,155.9882,306.8599,157.8412,306.8599,160.3207z"/>
			<path d="M338.0317,170.0004v-2.4424c-1.2275,1.9199-3.0322,2.8799-5.4141,2.8799c-1.543,0-2.9619-0.4258-4.2559-1.2764
				c-1.2949-0.8506-2.2969-2.0381-3.0078-3.5635s-1.0664-3.2783-1.0664-5.2598c0-1.9316,0.3213-3.6846,0.9658-5.2588
				c0.6436-1.5737,1.6104-2.7803,2.8984-3.6187s2.7285-1.2578,4.3203-1.2578c1.167,0,2.2061,0.2461,3.1172,0.7383
				s1.6523,1.1333,2.2236,1.9233v-9.5889h3.2637v26.7246H338.0317z M327.6597,160.3383c0,2.4795,0.5225,4.333,1.5674,5.5605
				s2.2793,1.8408,3.7012,1.8408c1.4336,0,2.6523-0.5859,3.6543-1.7588c1.0029-1.1729,1.5039-2.9619,1.5039-5.3691
				c0-2.6484-0.5098-4.5938-1.5312-5.833c-1.0205-1.2397-2.2783-1.8594-3.7734-1.8594c-1.458,0-2.6768,0.5952-3.6543,1.7861
				C328.1489,155.8969,327.6597,157.7748,327.6597,160.3383z"/>
			<path d="M358.9224,170.0004v-2.8438c-1.5068,2.1875-3.5547,3.2812-6.1436,3.2812c-1.1426,0-2.209-0.2188-3.1992-0.6562
				s-1.7256-0.9873-2.2051-1.6494c-0.4805-0.6621-0.8174-1.4736-1.0117-2.4336c-0.1338-0.6445-0.2012-1.665-0.2012-3.0635v-11.9946
				h3.2812v10.7368c0,1.7139,0.0674,2.8691,0.2012,3.4639c0.2061,0.8633,0.6436,1.541,1.3125,2.0332
				c0.668,0.4922,1.4941,0.7383,2.4785,0.7383s1.9082-0.252,2.7715-0.7568c0.8623-0.5039,1.4727-1.1904,1.832-2.0596
				c0.3584-0.8691,0.5371-2.1299,0.5371-3.7832v-10.3726h3.2812v19.3599H358.9224z"/>
			<path d="M367.0161,170.0004v-26.7246h3.2812v15.2402l7.7656-7.8755h4.2471l-7.4014,7.1821l8.1484,12.1777h-4.0469l-6.3984-9.8984
				l-2.3145,2.2236v7.6748H367.0161z"/>
			<path d="M392.8286,167.0658l0.4736,2.8984c-0.9238,0.1943-1.75,0.291-2.4785,0.291c-1.1914,0-2.1152-0.1885-2.7715-0.5645
				c-0.6562-0.377-1.1182-0.8721-1.3848-1.4863c-0.2676-0.6133-0.4014-1.9043-0.4014-3.873v-11.1387h-2.4062v-2.5522h2.4062v-4.7944
				l3.2627-1.9688v6.7632h3.2998v2.5522h-3.2998v11.3203c0,0.9365,0.0576,1.5381,0.1738,1.8047
				c0.1152,0.2676,0.3037,0.4805,0.5645,0.6387c0.2617,0.1582,0.6348,0.2363,1.1211,0.2363
				C391.7534,167.1928,392.2329,167.1508,392.8286,167.0658z"/>
		</g>
		<path fill-rule="evenodd" clip-rule="evenodd" fill="#D5E8D4" d="M709.0635,87h252v94h-252V87z"/>
		<g enable-background="new    ">
			<path d="M721.4531,147.9999v-26.7241h11.8486c2.3818,0,4.1934,0.2402,5.4326,0.7202c1.2393,0.4805,2.2305,1.3281,2.9717,2.543
				c0.7412,1.2153,1.1113,2.5586,1.1113,4.0288c0,1.8955-0.6133,3.4937-1.8408,4.7939c-1.2275,1.3008-3.123,2.127-5.6875,2.4795
				c0.9355,0.4497,1.6465,0.8931,2.1328,1.3306c1.0332,0.9478,2.0117,2.1328,2.9346,3.5547l4.6484,7.2734h-4.4473l-3.5371-5.5596
				c-1.0322-1.6045-1.8838-2.832-2.5518-3.6826s-1.2666-1.4463-1.7959-1.7866c-0.5283-0.3398-1.0664-0.5767-1.6133-0.7109
				c-0.4004-0.0845-1.0566-0.1274-1.9688-0.1274h-4.1016v11.8672H721.4531z M724.9893,133.0702h7.6016
				c1.6162,0,2.8809-0.167,3.792-0.5015c0.9111-0.334,1.6045-0.8687,2.0781-1.604s0.7109-1.5342,0.7109-2.397
				c0-1.2642-0.459-2.3032-1.376-3.1172c-0.918-0.814-2.3672-1.2217-4.3477-1.2217h-8.459V133.0702z"/>
			<path d="M761.1934,141.7655l3.3906,0.4189c-0.5352,1.9814-1.5254,3.5186-2.9717,4.6123s-3.2939,1.6406-5.542,1.6406
				c-2.8311,0-5.0762-0.8721-6.7354-2.6162c-1.6582-1.7432-2.4883-4.1895-2.4883-7.3369c0-3.2568,0.8379-5.7847,2.5156-7.5835
				c1.6768-1.7983,3.8525-2.6978,6.5264-2.6978c2.5879,0,4.7031,0.8813,6.3438,2.6431c1.6406,1.7622,2.4609,4.2417,2.4609,7.4375
				c0,0.1948-0.0068,0.4863-0.0186,0.875h-14.4375c0.1211,2.1274,0.7227,3.7554,1.8047,4.8853
				c1.0811,1.1309,2.4307,1.6953,4.0469,1.6953c1.2031,0,2.2295-0.3154,3.0811-0.9473
				C760.0205,144.16,760.6943,143.1513,761.1934,141.7655z M750.4199,136.4608h10.8096c-0.1455-1.6284-0.5596-2.8496-1.2393-3.6641
				c-1.0459-1.2637-2.4004-1.896-4.0654-1.896c-1.5068,0-2.7744,0.5044-3.8008,1.5132
				C751.0967,133.4227,750.5293,134.7719,750.4199,136.4608z"/>
			<path d="M781.0439,155.4188v-9.4785c-0.5098,0.7168-1.2246,1.3125-2.1416,1.7861c-0.918,0.4736-1.8926,0.7109-2.9258,0.7109
				c-2.2969,0-4.2744-0.917-5.9336-2.7529c-1.6592-1.835-2.4883-4.3506-2.4883-7.5464c0-1.9443,0.3369-3.6885,1.0117-5.2319
				c0.6748-1.543,1.6523-2.7129,2.9346-3.5093c1.2822-0.7954,2.6895-1.1938,4.2207-1.1938c2.3936,0,4.2773,1.0088,5.6504,3.0259
				v-2.5884h2.9531v26.7783H781.0439z M770.9268,138.2655c0,2.4912,0.5225,4.3604,1.5684,5.6055
				c1.0449,1.2461,2.2969,1.8682,3.7549,1.8682c1.3975,0,2.6006-0.5918,3.6094-1.7773c1.0088-1.1846,1.5127-2.9863,1.5127-5.4048
				c0-2.5762-0.5312-4.5142-1.5947-5.8149c-1.0635-1.3003-2.3125-1.9507-3.7461-1.9507c-1.4219,0-2.6279,0.605-3.6182,1.814
				C771.4219,133.8148,770.9268,135.7016,770.9268,138.2655z"/>
			<path d="M802.1543,147.9999v-2.8438c-1.5068,2.1875-3.5547,3.2812-6.1436,3.2812c-1.1426,0-2.209-0.2188-3.1992-0.6562
				s-1.7256-0.9873-2.2051-1.6494c-0.4805-0.6621-0.8174-1.4736-1.0117-2.4336c-0.1338-0.6445-0.2012-1.665-0.2012-3.063v-11.9946
				h3.2812v10.7368c0,1.7134,0.0674,2.8687,0.2012,3.4634c0.2061,0.8633,0.6436,1.541,1.3125,2.0332
				c0.668,0.4922,1.4941,0.7383,2.4785,0.7383s1.9082-0.252,2.7715-0.7568c0.8623-0.5039,1.4727-1.1904,1.832-2.0596
				c0.3584-0.8691,0.5371-2.1299,0.5371-3.7827v-10.3726h3.2812v19.3594H802.1543z"/>
			<path d="M810.248,125.0492v-3.7734h3.2812v3.7734H810.248z M810.248,147.9999v-19.3594h3.2812v19.3594H810.248z"/>
			<path d="M818.4873,147.9999v-19.3594h2.9531v2.9351c0.7529-1.3735,1.4492-2.2788,2.0869-2.7163s1.3398-0.6562,2.1055-0.6562
				c1.1055,0,2.2295,0.3525,3.3721,1.0571l-1.1299,3.0444c-0.8018-0.4741-1.6045-0.7109-2.4062-0.7109
				c-0.7168,0-1.3613,0.2158-1.9326,0.647c-0.5713,0.4316-0.9785,1.0303-1.2207,1.7959c-0.3652,1.1665-0.5469,2.4424-0.5469,3.8281
				v10.1353H818.4873z"/>
			<path d="M844.209,141.7655l3.3906,0.4189c-0.5352,1.9814-1.5254,3.5186-2.9717,4.6123s-3.2939,1.6406-5.542,1.6406
				c-2.8311,0-5.0762-0.8721-6.7354-2.6162c-1.6592-1.7432-2.4883-4.1895-2.4883-7.3369c0-3.2568,0.8389-5.7847,2.5156-7.5835
				c1.6768-1.7983,3.8525-2.6978,6.5264-2.6978c2.5879,0,4.7031,0.8813,6.3438,2.6431c1.6406,1.7622,2.4609,4.2417,2.4609,7.4375
				c0,0.1948-0.0068,0.4863-0.0186,0.875h-14.4375c0.1211,2.1274,0.7227,3.7554,1.8047,4.8853
				c1.0811,1.1309,2.4307,1.6953,4.0469,1.6953c1.2031,0,2.2295-0.3154,3.0811-0.9473
				C843.0361,144.16,843.71,143.1513,844.209,141.7655z M833.4355,136.4608h10.8096c-0.1455-1.6284-0.5596-2.8496-1.2393-3.6641
				c-1.0459-1.2637-2.4004-1.896-4.0654-1.896c-1.5068,0-2.7744,0.5044-3.8008,1.5132
				C834.1123,133.4227,833.5449,134.7719,833.4355,136.4608z"/>
			<path d="M851.7188,147.9999v-19.3594h2.9346v2.7163c0.6074-0.9482,1.416-1.7104,2.4248-2.2881
				c1.0088-0.5767,2.1572-0.8657,3.4453-0.8657c1.4336,0,2.6094,0.2979,3.5273,0.8931c0.917,0.5957,1.5645,1.4282,1.9414,2.4976
				c1.5312-2.2603,3.5244-3.3906,5.9795-3.3906c1.9199,0,3.3965,0.5317,4.4297,1.5952c1.0322,1.0635,1.5488,2.7007,1.5488,4.9126
				v13.2891h-3.2627v-12.1953c0-1.3125-0.1064-2.2573-0.3193-2.8345s-0.5986-1.042-1.1572-1.3945
				c-0.5596-0.3525-1.2158-0.5288-1.9688-0.5288c-1.3613,0-2.4912,0.4531-3.3906,1.3579c-0.8994,0.9058-1.3486,2.355-1.3486,4.3477
				v11.2476h-3.2812v-12.5781c0-1.4585-0.2676-2.5522-0.8027-3.2812c-0.5342-0.729-1.4092-1.0938-2.625-1.0938
				c-0.9238,0-1.7773,0.2432-2.5605,0.729c-0.7842,0.4863-1.3525,1.1973-1.7051,2.1328c-0.3525,0.936-0.5283,2.2852-0.5283,4.0469
				v10.0444H851.7188z"/>
			<path d="M896.0703,141.7655l3.3906,0.4189c-0.5352,1.9814-1.5254,3.5186-2.9717,4.6123s-3.2939,1.6406-5.542,1.6406
				c-2.8311,0-5.0762-0.8721-6.7354-2.6162c-1.6592-1.7432-2.4883-4.1895-2.4883-7.3369c0-3.2568,0.8389-5.7847,2.5156-7.5835
				c1.6768-1.7983,3.8525-2.6978,6.5264-2.6978c2.5879,0,4.7031,0.8813,6.3438,2.6431c1.6406,1.7622,2.4609,4.2417,2.4609,7.4375
				c0,0.1948-0.0068,0.4863-0.0186,0.875h-14.4375c0.1211,2.1274,0.7227,3.7554,1.8047,4.8853
				c1.0811,1.1309,2.4307,1.6953,4.0469,1.6953c1.2031,0,2.2295-0.3154,3.0811-0.9473
				C894.8975,144.16,895.5713,143.1513,896.0703,141.7655z M885.2969,136.4608h10.8096c-0.1455-1.6284-0.5596-2.8496-1.2393-3.6641
				c-1.0459-1.2637-2.4004-1.896-4.0654-1.896c-1.5068,0-2.7744,0.5044-3.8008,1.5132
				C885.9736,133.4227,885.4062,134.7719,885.2969,136.4608z"/>
			<path d="M903.5811,147.9999v-19.3594h2.9531v2.7524c1.4219-2.1265,3.4756-3.1899,6.1611-3.1899
				c1.167,0,2.2393,0.2095,3.2178,0.6289s1.71,0.9692,2.1963,1.6499s0.8262,1.4888,1.0215,2.4243
				c0.1211,0.6079,0.1816,1.6709,0.1816,3.1899v11.9038h-3.2812V136.224c0-1.3369-0.127-2.3364-0.3828-2.999
				c-0.2549-0.6621-0.708-1.1909-1.3574-1.5859c-0.6504-0.3945-1.4131-0.5923-2.2881-0.5923c-1.3975,0-2.6035,0.4438-3.6182,1.3306
				c-1.0156,0.8872-1.5225,2.5703-1.5225,5.0498v10.5728H903.5811z"/>
			<path d="M931.5078,145.0653l0.4736,2.8984c-0.9238,0.1943-1.75,0.291-2.4785,0.291c-1.1914,0-2.1152-0.1885-2.7715-0.5645
				c-0.6562-0.377-1.1182-0.8721-1.3848-1.4863c-0.2676-0.6133-0.4014-1.9043-0.4014-3.873v-11.1382h-2.4062v-2.5522h2.4062v-4.7944
				l3.2627-1.9688v6.7632h3.2998v2.5522h-3.2998v11.3198c0,0.9365,0.0576,1.5381,0.1738,1.8047
				c0.1152,0.2676,0.3037,0.4805,0.5645,0.6387c0.2617,0.1582,0.6348,0.2363,1.1211,0.2363
				C930.4326,145.1923,930.9121,145.1503,931.5078,145.0653z"/>
			<path d="M933.4033,142.2216l3.2451-0.5107c0.1816,1.3008,0.6895,2.2969,1.5215,2.9893c0.833,0.6934,1.9961,1.0391,3.4912,1.0391
				c1.5068,0,2.625-0.3066,3.3545-0.9199c0.7285-0.6143,1.0938-1.334,1.0938-2.1602c0-0.7412-0.3223-1.3252-0.9668-1.7505
				c-0.4492-0.2915-1.5674-0.6621-3.3535-1.1118c-2.4062-0.6074-4.0742-1.1328-5.0039-1.5767s-1.6348-1.0576-2.1152-1.8413
				c-0.4795-0.7837-0.7197-1.6499-0.7197-2.5977c0-0.8628,0.1973-1.6616,0.5928-2.397c0.3945-0.7354,0.9326-1.3462,1.6133-1.832
				c0.5098-0.3765,1.2061-0.6958,2.0869-0.957s1.8262-0.3921,2.835-0.3921c1.5186,0,2.8525,0.2188,4.001,0.6562
				s1.9961,1.0298,2.543,1.7773s0.9238,1.7471,1.1299,2.9985l-3.208,0.4375c-0.1455-0.9961-0.5684-1.7739-1.2666-2.333
				c-0.6992-0.5591-1.6865-0.8389-2.9629-0.8389c-1.5068,0-2.582,0.2495-3.2266,0.7476c-0.6436,0.4985-0.9658,1.082-0.9658,1.75
				c0,0.4258,0.1338,0.8086,0.4014,1.1484c0.2666,0.3525,0.6865,0.6445,1.2578,0.875c0.3281,0.1216,1.2939,0.4009,2.8984,0.8384
				c2.3203,0.6201,3.9404,1.1274,4.8574,1.5225c0.918,0.395,1.6377,0.9692,2.1602,1.7227s0.7842,1.689,0.7842,2.8071
				c0,1.0938-0.3193,2.124-0.957,3.0898s-1.5586,1.7139-2.7617,2.2422s-2.5645,0.793-4.083,0.793
				c-2.5156,0-4.4336-0.5225-5.752-1.5674S933.7676,144.2753,933.4033,142.2216z"/>
		</g>
		<path fill="none" stroke="#D5E8D4" stroke-width="6" stroke-miterlimit="8" d="M961.0635,110h25.5c17,0,25.5,8,25.5,24v12
			c0,8-4.1899,12-12.5601,12h-12.5599"/>
		<path fill-rule="evenodd" clip-rule="evenodd" fill="#82B366" stroke="#82B366" stroke-width="2.5747" stroke-miterlimit="8" d="
			M965.5635,158l22-7.5v15L965.5635,158z"/>
		<g enable-background="new    ">
			<path d="M1026.5098,143.9999v-19.0884h8.4639c1.7012,0,2.9941,0.1714,3.8799,0.5142s1.5928,0.9482,2.1221,1.8164
				c0.5293,0.8682,0.7949,1.8272,0.7949,2.8774c0,1.3545-0.4385,2.4961-1.3154,3.4248s-2.2314,1.519-4.0625,1.7705
				c0.668,0.3213,1.1758,0.6382,1.5234,0.9507c0.7373,0.6772,1.4365,1.5234,2.0967,2.5391l3.3203,5.1953h-3.1777l-2.5254-3.9717
				c-0.7383-1.1455-1.3457-2.0225-1.8232-2.6299s-0.9053-1.0327-1.2822-1.2759c-0.3779-0.2432-0.7617-0.4126-1.1523-0.5078
				c-0.2871-0.061-0.7559-0.0913-1.4062-0.0913h-2.9297v8.4766H1026.5098z M1029.0361,133.3358h5.4297
				c1.1543,0,2.0566-0.1191,2.708-0.3579s1.1455-0.6206,1.4844-1.146c0.3389-0.5249,0.5078-1.0957,0.5078-1.7124
				c0-0.9023-0.3281-1.6445-0.9834-2.2266c-0.6553-0.5815-1.6904-0.8721-3.1055-0.8721h-6.041V133.3358z"/>
			<path d="M1054.8945,139.5468l2.4219,0.2998c-0.3818,1.415-1.0889,2.5127-2.1221,3.2939s-2.3525,1.1719-3.958,1.1719
				c-2.0225,0-3.626-0.623-4.8115-1.8682c-1.1846-1.2461-1.7773-2.9932-1.7773-5.2412c0-2.3262,0.5996-4.1318,1.7969-5.4165
				c1.1982-1.2847,2.752-1.9272,4.6621-1.9272c1.8486,0,3.3584,0.6294,4.5303,1.8882s1.7578,3.0293,1.7578,5.312
				c0,0.1396-0.0039,0.3477-0.0127,0.625h-10.3125c0.0869,1.5195,0.5166,2.6826,1.2891,3.4902
				c0.7725,0.8066,1.7363,1.2109,2.8906,1.2109c0.8594,0,1.5928-0.2256,2.2012-0.6777
				C1054.0566,141.2567,1054.5391,140.536,1054.8945,139.5468z M1047.2002,135.7577h7.7207
				c-0.1045-1.1631-0.3994-2.0356-0.8857-2.6172c-0.7461-0.9028-1.7139-1.354-2.9033-1.354c-1.0762,0-1.9814,0.3604-2.7148,1.0806
				C1047.6836,133.5878,1047.2783,134.5512,1047.2002,135.7577z"/>
			<path d="M1060.8193,143.9999v-12.0054h-2.0703v-1.8228h2.0703v-1.4712c0-0.9287,0.083-1.6191,0.248-2.0703
				c0.2256-0.6079,0.6221-1.1006,1.1914-1.478c0.5684-0.3774,1.3643-0.5664,2.3887-0.5664c0.6602,0,1.3887,0.0781,2.1875,0.2344
				l-0.3516,2.0444c-0.4863-0.0869-0.9463-0.1304-1.3799-0.1304c-0.7119,0-1.2158,0.1519-1.5107,0.4556
				c-0.2949,0.3042-0.4424,0.8726-0.4424,1.7061v1.2759h2.6953v1.8228h-2.6953v12.0054H1060.8193z"/>
			<path d="M1076.6914,142.2938c-0.8682,0.7383-1.7041,1.2588-2.5068,1.5625s-1.6641,0.4561-2.584,0.4561
				c-1.5195,0-2.6875-0.3711-3.5029-1.1133c-0.8164-0.7422-1.2236-1.6904-1.2236-2.8447c0-0.6777,0.1533-1.2959,0.4619-1.8555
				c0.3076-0.5605,0.7119-1.0098,1.2109-1.3477c0.499-0.3389,1.0615-0.5947,1.6865-0.7686c0.46-0.1216,1.1543-0.2388,2.083-0.3516
				c1.8926-0.2256,3.2852-0.4946,4.1797-0.8071c0.0088-0.3213,0.0127-0.5254,0.0127-0.6123c0-0.9546-0.2207-1.6274-0.6641-2.0181
				c-0.5986-0.5293-1.4883-0.7944-2.6689-0.7944c-1.1025,0-1.916,0.1934-2.4414,0.5796s-0.9141,1.0698-1.165,2.0508l-2.292-0.3125
				c0.208-0.981,0.5508-1.7729,1.0283-2.3765c0.4775-0.603,1.168-1.0674,2.0703-1.3931c0.9033-0.3257,1.9492-0.4883,3.1387-0.4883
				c1.1797,0,2.1396,0.1392,2.877,0.4165c0.7383,0.2778,1.2803,0.6274,1.6279,1.0483c0.3467,0.4209,0.5898,0.9526,0.7295,1.5952
				c0.0781,0.3994,0.1172,1.1196,0.1172,2.1611v3.1255c0,2.1787,0.0498,3.5566,0.1494,4.1338s0.2969,1.1309,0.5928,1.6602h-2.4482
				C1076.917,143.5136,1076.7607,142.9452,1076.6914,142.2938z M1076.4961,137.0595c-0.8506,0.3477-2.127,0.6426-3.8281,0.8857
				c-0.9639,0.1387-1.6455,0.2949-2.0439,0.4688c-0.3994,0.1738-0.708,0.4277-0.9248,0.7617s-0.3252,0.7051-0.3252,1.1133
				c0,0.625,0.2363,1.1455,0.709,1.5625c0.4736,0.417,1.166,0.625,2.0771,0.625c0.9023,0,1.7061-0.1973,2.4092-0.5928
				c0.7031-0.3945,1.2188-0.9346,1.5488-1.6211c0.252-0.5293,0.3779-1.3105,0.3779-2.3438V137.0595z"/>
			<path d="M1091.5225,138.9345l2.3047,0.2998c-0.252,1.5889-0.8965,2.832-1.9336,3.7305s-2.3115,1.3477-3.8213,1.3477
				c-1.8926,0-3.4141-0.6182-4.5645-1.8555s-1.7246-3.0098-1.7246-5.3193c0-1.4927,0.2471-2.7993,0.7422-3.9189
				c0.4941-1.1196,1.2471-1.9595,2.2588-2.5195c1.0107-0.5601,2.1113-0.8398,3.3008-0.8398c1.502,0,2.7295,0.3799,3.6846,1.1392
				c0.9551,0.7598,1.5674,1.8384,1.8359,3.2358l-2.2783,0.3516c-0.2168-0.9287-0.6016-1.6274-1.1523-2.0962
				c-0.5518-0.4688-1.2178-0.7031-1.999-0.7031c-1.1807,0-2.1396,0.4229-2.877,1.2695c-0.7383,0.8462-1.1074,2.1851-1.1074,4.0171
				c0,1.8574,0.3564,3.207,1.0684,4.0488c0.7109,0.8428,1.6406,1.2637,2.7861,1.2637c0.9199,0,1.6885-0.2822,2.3047-0.8467
				S1091.3574,140.1063,1091.5225,138.9345z"/>
			<path d="M1100.9492,141.9032l0.3389,2.0703c-0.6602,0.1387-1.25,0.209-1.7715,0.209c-0.8506,0-1.5098-0.1348-1.9785-0.4043
				c-0.4688-0.2686-0.7988-0.6221-0.9902-1.0605c-0.1904-0.4385-0.2861-1.3613-0.2861-2.7676v-7.9556h-1.7188v-1.8228h1.7188
				v-3.4243l2.3311-1.4062v4.8306h2.3564v1.8228h-2.3564v8.0864c0,0.668,0.041,1.0977,0.123,1.2891
				c0.083,0.1904,0.2168,0.3428,0.4043,0.4551c0.1865,0.1133,0.4531,0.1699,0.8008,0.1699
				C1100.1807,141.995,1100.5234,141.9647,1100.9492,141.9032z"/>
			<path d="M1102.3691,137.0858c0-2.5605,0.7109-4.4575,2.1348-5.6899c1.1895-1.0244,2.6387-1.5366,4.3496-1.5366
				c1.9004,0,3.4541,0.623,4.6611,1.8687c1.2061,1.2456,1.8096,2.9663,1.8096,5.1626c0,1.7793-0.2666,3.1797-0.8008,4.1992
				c-0.5332,1.0205-1.3105,1.8125-2.3301,2.376c-1.0205,0.5645-2.1338,0.8467-3.3398,0.8467c-1.9365,0-3.501-0.6201-4.6943-1.8623
				C1102.9658,141.2089,1102.3691,139.4208,1102.3691,137.0858z M1104.7773,137.0858c0,1.7705,0.3867,3.0967,1.1592,3.9775
				c0.7725,0.8818,1.7451,1.3223,2.917,1.3223c1.1631,0,2.1309-0.4434,2.9033-1.3281c0.7725-0.8857,1.1592-2.2354,1.1592-4.0498
				c0-1.71-0.3887-3.0054-1.166-3.8867c-0.7764-0.8809-1.7422-1.3218-2.8965-1.3218c-1.1719,0-2.1445,0.4385-2.917,1.3154
				C1105.1641,133.9911,1104.7773,135.3148,1104.7773,137.0858z"/>
			<path d="M1118.0459,143.9999v-13.8281h2.1094v2.0962c0.5381-0.9805,1.0352-1.6274,1.4912-1.9399s0.957-0.4688,1.5039-0.4688
				c0.79,0,1.5928,0.252,2.4092,0.7554l-0.8076,2.1743c-0.5732-0.3384-1.1455-0.5078-1.7188-0.5078
				c-0.5127,0-0.9727,0.1543-1.3799,0.4624c-0.4082,0.3081-0.6992,0.7354-0.873,1.2822c-0.2598,0.8335-0.3906,1.7451-0.3906,2.7344
				v7.2397H1118.0459z"/>
			<path d="M1126.9648,127.6068v-2.6953h2.3438v2.6953H1126.9648z M1126.9648,143.9999v-13.8281h2.3438v13.8281H1126.9648z"/>
			<path d="M1132.877,143.9999v-13.8281h2.1094v1.9663c1.0156-1.519,2.4824-2.2788,4.4014-2.2788
				c0.833,0,1.5986,0.1499,2.2979,0.4492c0.6982,0.2993,1.2217,0.6924,1.5693,1.1782c0.3467,0.4863,0.5898,1.0635,0.7285,1.7319
				c0.0869,0.4341,0.1309,1.1938,0.1309,2.2788v8.5024h-2.3438v-8.4116c0-0.9546-0.0918-1.6685-0.2734-2.1416
				c-0.1826-0.4731-0.5059-0.8506-0.9707-1.1328c-0.4639-0.2822-1.0088-0.4233-1.6338-0.4233c-0.998,0-1.8604,0.3169-2.585,0.9507
				s-1.0869,1.8359-1.0869,3.6064v7.5522H1132.877z"/>
			<path d="M1147.2773,145.1454l2.2783,0.3389c0.0957,0.7031,0.3604,1.2148,0.7949,1.5361c0.5811,0.4346,1.375,0.6514,2.3828,0.6514
				c1.085,0,1.9219-0.2168,2.5127-0.6514c0.5898-0.4336,0.9893-1.041,1.1982-1.8223c0.1211-0.4775,0.1777-1.4805,0.1689-3.0078
				c-1.0244,1.2061-2.3008,1.8096-3.8281,1.8096c-1.9014,0-3.3721-0.6855-4.4141-2.0576c-1.042-1.3711-1.5625-3.0156-1.5625-4.9346
				c0-1.3193,0.2383-2.5366,0.7158-3.6523c0.4775-1.1152,1.1699-1.9771,2.0771-2.5845c0.9072-0.6079,1.9727-0.9116,3.1963-0.9116
				c1.6318,0,2.9775,0.6597,4.0371,1.979v-1.6665h2.1611v11.9531c0,2.1523-0.2197,3.6787-0.6572,4.5771
				c-0.4385,0.8984-1.1328,1.6074-2.084,2.1289c-0.9502,0.5205-2.1201,0.7812-3.5088,0.7812c-1.6494,0-2.9814-0.3711-3.9971-1.1133
				S1147.2422,146.6386,1147.2773,145.1454z M1149.2178,136.8383c0,1.8149,0.3594,3.1382,1.0801,3.9712
				c0.7207,0.834,1.623,1.25,2.709,1.25c1.0762,0,1.9785-0.4141,2.708-1.2432s1.0938-2.1289,1.0938-3.8999
				c0-1.6924-0.376-2.9688-1.126-3.8281c-0.751-0.8594-1.6562-1.2891-2.7148-1.2891c-1.042,0-1.9277,0.4233-2.6562,1.2695
				C1149.582,133.9154,1149.2178,135.1718,1149.2178,136.8383z"/>
		</g>
		<path fill="none" stroke="#E1D5E7" stroke-width="6" stroke-miterlimit="8" d="M203.0635,110h-27c-18,0-27,8-27,24v12
			c0,8,4.701,12,14.104,12h14.103"/>
		<path fill-rule="evenodd" clip-rule="evenodd" fill="#9673A6" stroke="#9673A6" stroke-width="2.5747" stroke-miterlimit="8" d="
			M199.5635,158l-22,7.5v-15L199.5635,158z"/>
		<g enable-background="new    ">
			<path d="M2.0962,126.9999v-19.0884h8.4639c1.7012,0,2.9946,0.1714,3.8799,0.5142c0.8857,0.3428,1.5928,0.9482,2.1226,1.8164
				c0.5293,0.8682,0.7944,1.8271,0.7944,2.8774c0,1.3545-0.4385,2.4961-1.3154,3.4248c-0.8765,0.9287-2.231,1.519-4.0625,1.7705
				c0.6685,0.3213,1.1763,0.6382,1.5234,0.9507c0.7378,0.6772,1.4365,1.5234,2.0967,2.5391l3.3203,5.1953h-3.1772l-2.5259-3.9717
				c-0.7383-1.1455-1.3457-2.0225-1.8232-2.6299s-0.9048-1.0327-1.2822-1.2759c-0.3779-0.2432-0.7617-0.4126-1.1523-0.5078
				c-0.2866-0.061-0.7554-0.0913-1.4062-0.0913H4.6226v8.4766H2.0962z M4.6226,116.3358h5.4297c1.1543,0,2.0571-0.1191,2.708-0.3579
				c0.6514-0.2388,1.146-0.6206,1.4844-1.146c0.3389-0.5249,0.5078-1.0957,0.5078-1.7124c0-0.9023-0.3276-1.6445-0.9829-2.2266
				c-0.6553-0.5815-1.6904-0.8721-3.1055-0.8721H4.6226V116.3358z"/>
			<path d="M30.4814,122.5468l2.4219,0.2998c-0.3818,1.415-1.0889,2.5127-2.1221,3.2939s-2.3525,1.1719-3.9585,1.1719
				c-2.0225,0-3.626-0.623-4.811-1.8682c-1.1851-1.2461-1.7773-2.9932-1.7773-5.2412c0-2.3262,0.5991-4.1318,1.7969-5.4165
				s2.7515-1.9272,4.6616-1.9272c1.8486,0,3.3589,0.6294,4.5308,1.8882s1.7578,3.0293,1.7578,5.312
				c0,0.1396-0.0039,0.3477-0.0127,0.625H22.6562c0.0869,1.5195,0.5166,2.6826,1.2891,3.4902
				c0.7725,0.8066,1.7358,1.2109,2.8906,1.2109c0.8594,0,1.5928-0.2256,2.2012-0.6777
				C29.6436,124.2567,30.126,123.536,30.4814,122.5468z M22.7866,118.7577h7.7212c-0.1045-1.1631-0.3994-2.0356-0.8857-2.6172
				c-0.7461-0.9028-1.7144-1.354-2.9033-1.354c-1.0767,0-1.9814,0.3604-2.7148,1.0806
				C23.2705,116.5878,22.8647,117.5512,22.7866,118.7577z"/>
			<path d="M36.4062,126.9999v-12.0054h-2.0703v-1.8228h2.0703v-1.4712c0-0.9287,0.083-1.6191,0.248-2.0703
				c0.2256-0.6079,0.6221-1.1006,1.1914-1.478c0.5684-0.3774,1.3643-0.5664,2.3887-0.5664c0.6602,0,1.3887,0.0781,2.1875,0.2344
				l-0.3516,2.0444c-0.4863-0.0869-0.9463-0.1304-1.3799-0.1304c-0.7119,0-1.2158,0.1519-1.5107,0.4556
				c-0.2949,0.3042-0.4424,0.8726-0.4424,1.7061v1.2759h2.6953v1.8228h-2.6953v12.0054H36.4062z"/>
			<path d="M52.2783,125.2938c-0.8682,0.7383-1.7041,1.2588-2.5068,1.5625s-1.6641,0.4561-2.584,0.4561
				c-1.5195,0-2.6875-0.3711-3.5029-1.1133c-0.8164-0.7422-1.2236-1.6904-1.2236-2.8447c0-0.6777,0.1533-1.2959,0.4619-1.8555
				c0.3076-0.5605,0.7119-1.0098,1.2109-1.3477c0.499-0.3389,1.0615-0.5947,1.6865-0.7686c0.46-0.1216,1.1543-0.2388,2.083-0.3516
				c1.8926-0.2256,3.2852-0.4946,4.1797-0.8071c0.0088-0.3213,0.0127-0.5254,0.0127-0.6123c0-0.9546-0.2207-1.6274-0.6641-2.0181
				c-0.5986-0.5293-1.4883-0.7944-2.6689-0.7944c-1.1025,0-1.916,0.1934-2.4414,0.5796s-0.9141,1.0698-1.165,2.0508l-2.292-0.3125
				c0.208-0.981,0.5508-1.7729,1.0283-2.3765c0.4775-0.603,1.168-1.0674,2.0703-1.3931c0.9033-0.3257,1.9492-0.4883,3.1387-0.4883
				c1.1797,0,2.1396,0.1392,2.877,0.4165c0.7383,0.2778,1.2803,0.6274,1.6279,1.0483c0.3467,0.4209,0.5898,0.9526,0.7295,1.5952
				c0.0781,0.3994,0.1172,1.1196,0.1172,2.1611v3.1255c0,2.1787,0.0498,3.5566,0.1494,4.1338s0.2969,1.1309,0.5928,1.6602h-2.4482
				C52.5039,126.5136,52.3477,125.9452,52.2783,125.2938z M52.083,120.0595c-0.8506,0.3477-2.127,0.6426-3.8281,0.8857
				c-0.9639,0.1387-1.6455,0.2949-2.0439,0.4688c-0.3994,0.1738-0.708,0.4277-0.9248,0.7617s-0.3252,0.7051-0.3252,1.1133
				c0,0.625,0.2363,1.1455,0.709,1.5625c0.4736,0.417,1.166,0.625,2.0771,0.625c0.9023,0,1.7061-0.1973,2.4092-0.5928
				c0.7031-0.3945,1.2188-0.9346,1.5488-1.6211c0.252-0.5293,0.3779-1.3105,0.3779-2.3438V120.0595z"/>
			<path d="M67.1094,121.9345l2.3047,0.2998c-0.252,1.5889-0.8965,2.832-1.9336,3.7305s-2.3115,1.3477-3.8213,1.3477
				c-1.8926,0-3.4141-0.6182-4.5645-1.8555s-1.7246-3.0098-1.7246-5.3193c0-1.4927,0.2471-2.7993,0.7422-3.9189
				c0.4941-1.1196,1.2471-1.9595,2.2588-2.5195c1.0107-0.5601,2.1113-0.8398,3.3008-0.8398c1.502,0,2.7295,0.3799,3.6846,1.1392
				c0.9551,0.7598,1.5674,1.8384,1.8359,3.2358l-2.2783,0.3516c-0.2168-0.9287-0.6016-1.6274-1.1523-2.0962
				c-0.5518-0.4688-1.2178-0.7031-1.999-0.7031c-1.1807,0-2.1396,0.4229-2.877,1.2695c-0.7383,0.8462-1.1074,2.1851-1.1074,4.0171
				c0,1.8574,0.3564,3.207,1.0684,4.0488c0.7109,0.8428,1.6406,1.2637,2.7861,1.2637c0.9199,0,1.6885-0.2822,2.3047-0.8467
				S66.9443,123.1063,67.1094,121.9345z"/>
			<path d="M76.5361,124.9032l0.3389,2.0703c-0.6602,0.1387-1.25,0.209-1.7715,0.209c-0.8506,0-1.5098-0.1348-1.9785-0.4043
				c-0.4688-0.2686-0.7988-0.6221-0.9902-1.0605c-0.1904-0.4385-0.2861-1.3613-0.2861-2.7676v-7.9556h-1.7188v-1.8228h1.7188
				v-3.4243l2.3311-1.4062v4.8306h2.3564v1.8228h-2.3564v8.0864c0,0.668,0.041,1.0977,0.123,1.2891
				c0.083,0.1904,0.2168,0.3428,0.4043,0.4551c0.1865,0.1133,0.4531,0.1699,0.8008,0.1699
				C75.7676,124.995,76.1104,124.9647,76.5361,124.9032z"/>
			<path d="M77.9561,120.0858c0-2.5605,0.7109-4.4575,2.1348-5.6899c1.1895-1.0244,2.6387-1.5366,4.3496-1.5366
				c1.9004,0,3.4541,0.623,4.6611,1.8687c1.2061,1.2456,1.8096,2.9663,1.8096,5.1626c0,1.7793-0.2666,3.1797-0.8008,4.1992
				c-0.5332,1.0205-1.3105,1.8125-2.3301,2.376c-1.0205,0.5645-2.1338,0.8467-3.3398,0.8467c-1.9365,0-3.501-0.6201-4.6943-1.8623
				C78.5527,124.2089,77.9561,122.4208,77.9561,120.0858z M80.3643,120.0858c0,1.7705,0.3867,3.0967,1.1592,3.9775
				c0.7725,0.8818,1.7451,1.3223,2.917,1.3223c1.1631,0,2.1309-0.4434,2.9033-1.3281c0.7725-0.8857,1.1592-2.2354,1.1592-4.0498
				c0-1.71-0.3887-3.0054-1.166-3.8867c-0.7764-0.8809-1.7422-1.3218-2.8965-1.3218c-1.1719,0-2.1445,0.4385-2.917,1.3154
				C80.751,116.9911,80.3643,118.3148,80.3643,120.0858z"/>
			<path d="M93.6328,126.9999v-13.8281h2.1094v2.0962c0.5381-0.9805,1.0352-1.6274,1.4912-1.9399s0.957-0.4688,1.5039-0.4688
				c0.79,0,1.5928,0.252,2.4092,0.7554l-0.8076,2.1743c-0.5732-0.3384-1.1455-0.5078-1.7188-0.5078
				c-0.5127,0-0.9727,0.1543-1.3799,0.4624c-0.4082,0.3081-0.6992,0.7354-0.873,1.2822c-0.2598,0.8335-0.3906,1.7451-0.3906,2.7344
				v7.2397H93.6328z"/>
			<path d="M102.5518,110.6068v-2.6953h2.3438v2.6953H102.5518z M102.5518,126.9999v-13.8281h2.3438v13.8281H102.5518z"/>
			<path d="M108.4639,126.9999v-13.8281h2.1094v1.9663c1.0156-1.519,2.4824-2.2788,4.4014-2.2788
				c0.833,0,1.5986,0.1499,2.2979,0.4492c0.6982,0.2993,1.2217,0.6924,1.5693,1.1782c0.3467,0.4863,0.5898,1.0635,0.7285,1.7319
				c0.0869,0.4341,0.1309,1.1938,0.1309,2.2788v8.5024h-2.3438v-8.4116c0-0.9546-0.0918-1.6685-0.2734-2.1416
				c-0.1826-0.4731-0.5059-0.8506-0.9707-1.1328c-0.4639-0.2822-1.0088-0.4233-1.6338-0.4233c-0.998,0-1.8604,0.3169-2.585,0.9507
				s-1.0869,1.8359-1.0869,3.6064v7.5522H108.4639z"/>
			<path d="M122.8643,128.1454l2.2783,0.3389c0.0957,0.7031,0.3604,1.2148,0.7949,1.5361c0.5811,0.4346,1.375,0.6514,2.3828,0.6514
				c1.085,0,1.9219-0.2168,2.5127-0.6514c0.5898-0.4336,0.9893-1.041,1.1982-1.8223c0.1211-0.4775,0.1777-1.4805,0.1689-3.0078
				c-1.0244,1.2061-2.3008,1.8096-3.8281,1.8096c-1.9014,0-3.3721-0.6855-4.4141-2.0576c-1.042-1.3711-1.5625-3.0156-1.5625-4.9346
				c0-1.3193,0.2383-2.5366,0.7158-3.6523c0.4775-1.1152,1.1699-1.9771,2.0771-2.5845c0.9072-0.6079,1.9727-0.9116,3.1963-0.9116
				c1.6318,0,2.9775,0.6597,4.0371,1.979v-1.6665h2.1611v11.9531c0,2.1523-0.2197,3.6787-0.6572,4.5772
				c-0.4385,0.8984-1.1328,1.6074-2.084,2.1289c-0.9502,0.5205-2.1201,0.7812-3.5088,0.7812c-1.6494,0-2.9814-0.3711-3.9971-1.1133
				S122.8291,129.6386,122.8643,128.1454z M124.8047,119.8383c0,1.8149,0.3594,3.1382,1.0801,3.9712
				c0.7207,0.834,1.623,1.25,2.709,1.25c1.0762,0,1.9785-0.4141,2.708-1.2432s1.0938-2.1289,1.0938-3.8999
				c0-1.6924-0.376-2.9688-1.126-3.8281c-0.751-0.8594-1.6562-1.2891-2.7148-1.2891c-1.042,0-1.9277,0.4233-2.6562,1.2695
				C125.1689,116.9154,124.8047,118.1718,124.8047,119.8383z"/>
		</g>
		<g enable-background="new    ">
			<path d="M28.646,159.0004v-19.0889h3.8022l4.5181,13.5151c0.417,1.2588,0.7207,2.2012,0.9116,2.8267
				c0.2168-0.6948,0.5557-1.7153,1.0156-3.061l4.5703-13.2808h3.3984v19.0889h-2.4351v-15.9771l-5.5469,15.9771h-2.2783
				l-5.521-16.2505v16.2505H28.646z"/>
			<path d="M50.6514,142.6068v-2.6953h2.3438v2.6953H50.6514z M50.6514,159.0004v-13.8286h2.3438v13.8286H50.6514z"/>
			<path d="M56.1338,160.1459l2.2773,0.3389c0.0957,0.7031,0.3613,1.2148,0.7949,1.5361c0.582,0.4346,1.375,0.6514,2.3828,0.6514
				c1.0859,0,1.9219-0.2168,2.5137-0.6514c0.5898-0.4336,0.9883-1.041,1.1973-1.8223c0.1211-0.4775,0.1777-1.4805,0.1699-3.0078
				c-1.0254,1.2061-2.3008,1.8096-3.8281,1.8096c-1.9023,0-3.373-0.6855-4.4141-2.0576c-1.043-1.3716-1.563-3.0161-1.563-4.9351
				c0-1.3193,0.2388-2.5366,0.7153-3.6523c0.4785-1.1152,1.1699-1.9771,2.0781-2.5845c0.9062-0.6079,1.9727-0.9116,3.1953-0.9116
				c1.6328,0,2.9785,0.6597,4.0371,1.979v-1.6665h2.1621v11.9536c0,2.1523-0.2207,3.6787-0.6582,4.5771s-1.1328,1.6074-2.084,2.1289
				c-0.9492,0.5205-2.1191,0.7812-3.5078,0.7812c-1.6504,0-2.9824-0.3711-3.998-1.1133S56.0986,161.6391,56.1338,160.1459z
				 M58.0732,151.8383c0,1.8149,0.3594,3.1382,1.0801,3.9712c0.7207,0.8345,1.623,1.2505,2.709,1.2505
				c1.0762,0,1.9785-0.4141,2.709-1.2437c0.7285-0.8291,1.0938-2.1289,1.0938-3.8999c0-1.6924-0.377-2.9688-1.127-3.8281
				s-1.6562-1.2891-2.7148-1.2891c-1.041,0-1.9277,0.4233-2.6562,1.2695C58.4385,148.9154,58.0732,150.1718,58.0732,151.8383z"/>
			<path d="M71.3672,159.0004v-13.8286h2.1094v2.0962c0.5381-0.9805,1.0352-1.6274,1.4912-1.9399s0.957-0.4688,1.5039-0.4688
				c0.79,0,1.5928,0.252,2.4092,0.7554l-0.8076,2.1743c-0.5732-0.3384-1.1455-0.5078-1.7188-0.5078
				c-0.5127,0-0.9727,0.1543-1.3799,0.4624c-0.4082,0.3081-0.6992,0.7354-0.873,1.2822c-0.2598,0.8335-0.3906,1.7451-0.3906,2.7344
				v7.2402H71.3672z"/>
			<path d="M89.2969,157.2943c-0.8682,0.7383-1.7041,1.2588-2.5068,1.5625s-1.6641,0.4561-2.584,0.4561
				c-1.5195,0-2.6875-0.3711-3.5029-1.1133c-0.8164-0.7422-1.2236-1.6904-1.2236-2.8452c0-0.6777,0.1533-1.2959,0.4619-1.8555
				c0.3076-0.5605,0.7119-1.0098,1.2109-1.3477c0.499-0.3389,1.0615-0.5947,1.6865-0.7686c0.46-0.1216,1.1543-0.2388,2.083-0.3516
				c1.8926-0.2256,3.2852-0.4946,4.1797-0.8071c0.0088-0.3213,0.0127-0.5254,0.0127-0.6123c0-0.9546-0.2207-1.6274-0.6641-2.0181
				c-0.5986-0.5293-1.4883-0.7944-2.6689-0.7944c-1.1025,0-1.916,0.1934-2.4414,0.5796s-0.9141,1.0698-1.165,2.0508l-2.292-0.3125
				c0.208-0.981,0.5508-1.7729,1.0283-2.3765c0.4775-0.603,1.168-1.0674,2.0703-1.3931c0.9033-0.3257,1.9492-0.4883,3.1387-0.4883
				c1.1797,0,2.1396,0.1392,2.877,0.4165c0.7383,0.2778,1.2803,0.6274,1.6279,1.0483c0.3467,0.4209,0.5898,0.9526,0.7295,1.5952
				c0.0781,0.3994,0.1172,1.1196,0.1172,2.1611v3.1255c0,2.1787,0.0498,3.5571,0.1494,4.1343s0.2969,1.1309,0.5928,1.6602h-2.4482
				C89.5225,158.5141,89.3662,157.9457,89.2969,157.2943z M89.1016,152.0595c-0.8506,0.3477-2.127,0.6426-3.8281,0.8857
				c-0.9639,0.1387-1.6455,0.2949-2.0439,0.4688c-0.3994,0.1738-0.708,0.4277-0.9248,0.7617s-0.3252,0.7051-0.3252,1.1133
				c0,0.625,0.2363,1.146,0.709,1.563c0.4736,0.417,1.166,0.625,2.0771,0.625c0.9023,0,1.7061-0.1973,2.4092-0.5928
				c0.7031-0.3945,1.2188-0.9351,1.5488-1.6216c0.252-0.5293,0.3779-1.3105,0.3779-2.3438V152.0595z"/>
			<path d="M100.2217,156.9037l0.3389,2.0703c-0.6602,0.1387-1.25,0.209-1.7715,0.209c-0.8506,0-1.5098-0.1348-1.9785-0.4043
				c-0.4688-0.2686-0.7988-0.6221-0.9902-1.0605c-0.1904-0.4385-0.2861-1.3613-0.2861-2.7681v-7.9556h-1.7188v-1.8228h1.7188
				v-3.4243l2.3311-1.4062v4.8306h2.3564v1.8228h-2.3564v8.0864c0,0.668,0.041,1.0981,0.123,1.2896
				c0.083,0.1904,0.2168,0.3428,0.4043,0.4551c0.1865,0.1133,0.4531,0.1699,0.8008,0.1699
				C99.4531,156.9955,99.7959,156.9652,100.2217,156.9037z"/>
			<path d="M102.5264,142.6068v-2.6953h2.3438v2.6953H102.5264z M102.5264,159.0004v-13.8286h2.3438v13.8286H102.5264z"/>
			<path d="M107.5654,152.0858c0-2.5605,0.7109-4.4575,2.1348-5.6899c1.1895-1.0244,2.6387-1.5366,4.3496-1.5366
				c1.9004,0,3.4541,0.623,4.6611,1.8687c1.2061,1.2456,1.8096,2.9663,1.8096,5.1626c0,1.7793-0.2666,3.1797-0.8008,4.1992
				c-0.5332,1.021-1.3105,1.813-2.3301,2.3765c-1.0205,0.5645-2.1338,0.8467-3.3398,0.8467c-1.9365,0-3.501-0.6201-4.6943-1.8623
				C108.1621,156.2094,107.5654,154.4208,107.5654,152.0858z M109.9736,152.0858c0,1.7705,0.3867,3.0967,1.1592,3.9775
				c0.7725,0.8823,1.7451,1.3228,2.917,1.3228c1.1631,0,2.1309-0.4434,2.9033-1.3286c0.7725-0.8857,1.1592-2.2354,1.1592-4.0498
				c0-1.71-0.3887-3.0054-1.166-3.8867c-0.7764-0.8809-1.7422-1.3218-2.8965-1.3218c-1.1719,0-2.1445,0.4385-2.917,1.3154
				C110.3604,148.9911,109.9736,150.3148,109.9736,152.0858z"/>
			<path d="M123.2686,159.0004v-13.8286h2.1094v1.9663c1.0156-1.519,2.4824-2.2788,4.4014-2.2788
				c0.833,0,1.5986,0.1499,2.2979,0.4492c0.6982,0.2993,1.2217,0.6924,1.5693,1.1782c0.3467,0.4863,0.5898,1.0635,0.7285,1.7319
				c0.0869,0.4341,0.1309,1.1938,0.1309,2.2788v8.5029h-2.3438v-8.4121c0-0.9546-0.0918-1.6685-0.2734-2.1416
				c-0.1826-0.4731-0.5059-0.8506-0.9707-1.1328c-0.4639-0.2822-1.0088-0.4233-1.6338-0.4233c-0.998,0-1.8604,0.3169-2.585,0.9507
				s-1.0869,1.8359-1.0869,3.6064v7.5527H123.2686z"/>
		</g>
		<g enable-background="new    ">
			<path d="M513.0337,34.9999V15.9115h13.8022v2.2524h-11.2764v5.8462h10.5601v2.2397h-10.5601v6.4971h11.7188v2.2529H513.0337z"/>
			<path d="M530.4688,34.9999V21.1718h2.1094v1.9663c1.0156-1.519,2.4824-2.2788,4.4009-2.2788
				c0.8335,0,1.5996,0.1499,2.2983,0.4492s1.2212,0.6924,1.5688,1.1782c0.3477,0.4863,0.5898,1.0635,0.7285,1.7319
				c0.0879,0.4341,0.1309,1.1938,0.1309,2.2788v8.5024h-2.3438v-8.4116c0-0.9546-0.0908-1.6685-0.2734-2.1416
				c-0.1821-0.4731-0.5054-0.8506-0.9697-1.1328c-0.4648-0.2822-1.0093-0.4233-1.6343-0.4233c-0.9985,0-1.8599,0.3169-2.5845,0.9507
				c-0.7251,0.6338-1.0874,1.8359-1.0874,3.6064v7.5522H530.4688z"/>
			<path d="M544.8696,36.1454l2.2783,0.3389c0.0957,0.7031,0.3604,1.2148,0.7949,1.5361c0.5811,0.4346,1.375,0.6514,2.3828,0.6514
				c1.085,0,1.9219-0.2168,2.5127-0.6514c0.5898-0.4336,0.9893-1.041,1.1982-1.8223c0.1211-0.4775,0.1777-1.4805,0.1689-3.0078
				c-1.0244,1.2061-2.3008,1.8096-3.8281,1.8096c-1.9014,0-3.3721-0.6855-4.4141-2.0576c-1.042-1.3711-1.5625-3.0156-1.5625-4.9346
				c0-1.3193,0.2383-2.5366,0.7158-3.6523c0.4775-1.1152,1.1699-1.9771,2.0771-2.5845c0.9072-0.6079,1.9727-0.9116,3.1963-0.9116
				c1.6318,0,2.9775,0.6597,4.0371,1.979v-1.6665h2.1611v11.9531c0,2.1523-0.2197,3.6787-0.6572,4.5771
				c-0.4385,0.8984-1.1328,1.6074-2.084,2.1289c-0.9502,0.5205-2.1201,0.7812-3.5088,0.7812c-1.6494,0-2.9814-0.3711-3.9971-1.1133
				S544.8345,37.6386,544.8696,36.1454z M546.8101,27.8383c0,1.8149,0.3594,3.1382,1.0801,3.9712
				c0.7207,0.834,1.623,1.25,2.709,1.25c1.0762,0,1.9785-0.4141,2.708-1.2432s1.0938-2.1289,1.0938-3.8999
				c0-1.6924-0.376-2.9688-1.126-3.8281c-0.751-0.8594-1.6562-1.2891-2.7148-1.2891c-1.042,0-1.9277,0.4233-2.6562,1.2695
				C547.1743,24.9154,546.8101,26.1718,546.8101,27.8383z"/>
			<path d="M560.1431,18.6068v-2.6953h2.3438v2.6953H560.1431z M560.1431,34.9999V21.1718h2.3438v13.8281H560.1431z"/>
			<path d="M566.0542,34.9999V21.1718h2.1094v1.9663c1.0156-1.519,2.4824-2.2788,4.4014-2.2788c0.833,0,1.5986,0.1499,2.2979,0.4492
				c0.6982,0.2993,1.2217,0.6924,1.5693,1.1782c0.3467,0.4863,0.5898,1.0635,0.7285,1.7319
				c0.0869,0.4341,0.1309,1.1938,0.1309,2.2788v8.5024h-2.3438v-8.4116c0-0.9546-0.0918-1.6685-0.2734-2.1416
				c-0.1826-0.4731-0.5059-0.8506-0.9707-1.1328c-0.4639-0.2822-1.0088-0.4233-1.6338-0.4233c-0.998,0-1.8604,0.3169-2.585,0.9507
				s-1.0869,1.8359-1.0869,3.6064v7.5522H566.0542z"/>
			<path d="M590.3516,30.5468l2.4219,0.2998c-0.3818,1.415-1.0889,2.5127-2.1221,3.2939s-2.3525,1.1719-3.958,1.1719
				c-2.0234,0-3.6274-0.623-4.812-1.8682c-1.1846-1.2461-1.7773-2.9932-1.7773-5.2412c0-2.3262,0.5986-4.1318,1.7969-5.4165
				s2.7524-1.9272,4.6616-1.9272c1.8496,0,3.3594,0.6294,4.5312,1.8882s1.7578,3.0293,1.7578,5.312
				c0,0.1396-0.0039,0.3477-0.0127,0.625h-10.313c0.0869,1.5195,0.5166,2.6826,1.2891,3.4902
				c0.7729,0.8066,1.7368,1.2109,2.8911,1.2109c0.8594,0,1.5928-0.2256,2.2002-0.6777
				C589.5137,32.2567,589.9961,31.536,590.3516,30.5468z M582.6558,26.7577h7.7222c-0.1045-1.1631-0.3994-2.0356-0.8857-2.6172
				c-0.7461-0.9028-1.7139-1.354-2.9033-1.354c-1.0762,0-1.9814,0.3604-2.7153,1.0806
				C583.1401,24.5878,582.7339,25.5512,582.6558,26.7577z"/>
			<path d="M605.1826,30.5468l2.4219,0.2998c-0.3818,1.415-1.0889,2.5127-2.1221,3.2939s-2.3525,1.1719-3.958,1.1719
				c-2.0234,0-3.627-0.623-4.8115-1.8682c-1.1846-1.2461-1.7773-2.9932-1.7773-5.2412c0-2.3262,0.5986-4.1318,1.7969-5.4165
				s2.752-1.9272,4.6611-1.9272c1.8496,0,3.3594,0.6294,4.5312,1.8882s1.7578,3.0293,1.7578,5.312
				c0,0.1396-0.0039,0.3477-0.0127,0.625h-10.3125c0.0869,1.5195,0.5166,2.6826,1.2891,3.4902
				c0.7725,0.8066,1.7363,1.2109,2.8906,1.2109c0.8594,0,1.5928-0.2256,2.2002-0.6777
				C604.3447,32.2567,604.8271,31.536,605.1826,30.5468z M597.4873,26.7577h7.7217c-0.1045-1.1631-0.3994-2.0356-0.8857-2.6172
				c-0.7461-0.9028-1.7139-1.354-2.9033-1.354c-1.0762,0-1.9814,0.3604-2.7148,1.0806
				C597.9717,24.5878,597.5654,25.5512,597.4873,26.7577z"/>
			<path d="M610.5205,34.9999V21.1718h2.1094v2.0962c0.5381-0.9805,1.0352-1.6274,1.4912-1.9399s0.957-0.4688,1.5039-0.4688
				c0.79,0,1.5928,0.252,2.4092,0.7554l-0.8076,2.1743c-0.5732-0.3384-1.1455-0.5078-1.7188-0.5078
				c-0.5127,0-0.9727,0.1543-1.3799,0.4624c-0.4082,0.3081-0.6992,0.7354-0.873,1.2822c-0.2598,0.8335-0.3906,1.7451-0.3906,2.7344
				v7.2397H610.5205z"/>
			<path d="M619.4404,18.6068v-2.6953h2.3438v2.6953H619.4404z M619.4404,34.9999V21.1718h2.3438v13.8281H619.4404z"/>
			<path d="M625.3516,34.9999V21.1718h2.1094v1.9663c1.0156-1.519,2.4824-2.2788,4.4014-2.2788c0.833,0,1.5986,0.1499,2.2979,0.4492
				c0.6982,0.2993,1.2217,0.6924,1.5693,1.1782c0.3467,0.4863,0.5898,1.0635,0.7285,1.7319
				c0.0869,0.4341,0.1309,1.1938,0.1309,2.2788v8.5024h-2.3438v-8.4116c0-0.9546-0.0918-1.6685-0.2734-2.1416
				c-0.1826-0.4731-0.5059-0.8506-0.9707-1.1328c-0.4639-0.2822-1.0088-0.4233-1.6338-0.4233c-0.998,0-1.8604,0.3169-2.585,0.9507
				s-1.0869,1.8359-1.0869,3.6064v7.5522H625.3516z"/>
			<path d="M639.7529,36.1454l2.2783,0.3389c0.0957,0.7031,0.3604,1.2148,0.7949,1.5361c0.5811,0.4346,1.375,0.6514,2.3828,0.6514
				c1.085,0,1.9219-0.2168,2.5127-0.6514c0.5898-0.4336,0.9893-1.041,1.1982-1.8223c0.1211-0.4775,0.1777-1.4805,0.1689-3.0078
				c-1.0244,1.2061-2.3008,1.8096-3.8281,1.8096c-1.9014,0-3.3721-0.6855-4.4141-2.0576c-1.042-1.3711-1.5625-3.0156-1.5625-4.9346
				c0-1.3193,0.2383-2.5366,0.7158-3.6523c0.4775-1.1152,1.1699-1.9771,2.0771-2.5845c0.9072-0.6079,1.9727-0.9116,3.1963-0.9116
				c1.6318,0,2.9775,0.6597,4.0371,1.979v-1.6665h2.1611v11.9531c0,2.1523-0.2197,3.6787-0.6572,4.5771
				c-0.4385,0.8984-1.1328,1.6074-2.084,2.1289c-0.9502,0.5205-2.1201,0.7812-3.5088,0.7812c-1.6494,0-2.9814-0.3711-3.9971-1.1133
				S639.7178,37.6386,639.7529,36.1454z M641.6934,27.8383c0,1.8149,0.3594,3.1382,1.0801,3.9712
				c0.7207,0.834,1.623,1.25,2.709,1.25c1.0762,0,1.9785-0.4141,2.708-1.2432s1.0938-2.1289,1.0938-3.8999
				c0-1.6924-0.376-2.9688-1.126-3.8281c-0.751-0.8594-1.6562-1.2891-2.7148-1.2891c-1.042,0-1.9277,0.4233-2.6562,1.2695
				C642.0576,24.9154,641.6934,26.1718,641.6934,27.8383z"/>
		</g>
		<g enable-background="new    ">
			<path d="M546.8125,66.9999V50.164h-6.2891v-2.2524h15.1304v2.2524h-6.3154v16.8359H546.8125z"/>
			<path d="M564.4561,62.5468l2.4219,0.2998c-0.3823,1.415-1.0898,2.5127-2.1226,3.2939c-1.0332,0.7812-2.3525,1.1719-3.9585,1.1719
				c-2.0225,0-3.626-0.623-4.811-1.8682c-1.1851-1.2461-1.7773-2.9932-1.7773-5.2412c0-2.3262,0.5991-4.1318,1.7969-5.4165
				s2.7515-1.9272,4.6616-1.9272c1.8486,0,3.3594,0.6294,4.5312,1.8882s1.7578,3.0293,1.7578,5.312
				c0,0.1396-0.0044,0.3477-0.0132,0.625h-10.3125c0.0869,1.5195,0.5166,2.6826,1.2891,3.4902
				c0.7725,0.8066,1.7358,1.2109,2.8906,1.2109c0.8594,0,1.5928-0.2256,2.2007-0.6777
				C563.6182,64.2567,564.1001,63.536,564.4561,62.5468z M556.7607,58.7577h7.7212c-0.104-1.1631-0.3994-2.0356-0.8853-2.6172
				c-0.7466-0.9028-1.7148-1.354-2.9038-1.354c-1.0767,0-1.9814,0.3604-2.7148,1.0806
				C557.2446,56.5878,556.8389,57.5512,556.7607,58.7577z"/>
			<path d="M568.8828,62.872l2.3174-0.3643c0.1309,0.9287,0.4932,1.6406,1.0879,2.1357c0.5938,0.4941,1.4258,0.7422,2.4932,0.7422
				c1.0762,0,1.875-0.2197,2.3955-0.6582c0.5215-0.4375,0.7812-0.9521,0.7812-1.543c0-0.5293-0.2295-0.9453-0.6895-1.25
				c-0.3213-0.208-1.1201-0.4727-2.3965-0.7939c-1.7188-0.4336-2.9102-0.8096-3.5742-1.126
				c-0.6641-0.3169-1.167-0.7554-1.5098-1.3154c-0.3438-0.5601-0.5146-1.1782-0.5146-1.8555c0-0.6162,0.1406-1.187,0.4229-1.7124
				c0.2822-0.5249,0.666-0.9609,1.1523-1.3086c0.3652-0.269,0.8613-0.4966,1.4912-0.6836c0.6289-0.1865,1.3037-0.2798,2.0244-0.2798
				c1.085,0,2.0381,0.1562,2.8584,0.4688s1.4258,0.7358,1.8164,1.2695s0.6592,1.248,0.8076,2.1421l-2.292,0.3125
				c-0.1045-0.7119-0.4062-1.2676-0.9053-1.667c-0.499-0.3989-1.2041-0.5986-2.1152-0.5986c-1.0771,0-1.8447,0.1777-2.3047,0.5337
				c-0.4609,0.356-0.6904,0.7725-0.6904,1.25c0,0.3037,0.0957,0.5771,0.2861,0.8203c0.1914,0.252,0.4902,0.46,0.8984,0.625
				c0.2344,0.0869,0.9248,0.2866,2.0703,0.5991c1.6582,0.4424,2.8145,0.8052,3.4707,1.0869c0.6553,0.2822,1.1689,0.6929,1.543,1.231
				c0.373,0.5381,0.5596,1.2061,0.5596,2.0049c0,0.7812-0.2275,1.5166-0.6836,2.207s-1.1133,1.2236-1.9727,1.6016
				s-1.832,0.5664-2.917,0.5664c-1.7969,0-3.166-0.373-4.1074-1.1201C569.7441,65.4462,569.1436,64.3397,568.8828,62.872z"/>
			<path d="M588.2705,64.9032l0.3389,2.0703c-0.6602,0.1387-1.25,0.209-1.7715,0.209c-0.8506,0-1.5098-0.1348-1.9785-0.4043
				c-0.4688-0.2686-0.7988-0.6221-0.9902-1.0605c-0.1904-0.4385-0.2861-1.3613-0.2861-2.7676v-7.9556h-1.7188v-1.8228h1.7188
				v-3.4243l2.3311-1.4062v4.8306h2.3564v1.8228h-2.3564v8.0864c0,0.668,0.041,1.0977,0.123,1.2891
				c0.083,0.1904,0.2168,0.3428,0.4043,0.4551c0.1865,0.1133,0.4531,0.1699,0.8008,0.1699
				C587.502,64.995,587.8447,64.9647,588.2705,64.9032z"/>
			<path d="M590.5752,50.6068v-2.6953h2.3438v2.6953H590.5752z M590.5752,66.9999V53.1718h2.3438v13.8281H590.5752z"/>
			<path d="M596.4873,66.9999V53.1718h2.1094v1.9663c1.0156-1.519,2.4824-2.2788,4.4014-2.2788c0.833,0,1.5986,0.1499,2.2979,0.4492
				c0.6982,0.2993,1.2217,0.6924,1.5693,1.1782c0.3467,0.4863,0.5898,1.0635,0.7285,1.7319
				c0.0869,0.4341,0.1309,1.1938,0.1309,2.2788v8.5024h-2.3438v-8.4116c0-0.9546-0.0918-1.6685-0.2734-2.1416
				c-0.1826-0.4731-0.5059-0.8506-0.9707-1.1328c-0.4639-0.2822-1.0088-0.4233-1.6338-0.4233c-0.998,0-1.8604,0.3169-2.585,0.9507
				s-1.0869,1.8359-1.0869,3.6064v7.5522H596.4873z"/>
			<path d="M610.8877,68.1454l2.2783,0.3389c0.0957,0.7031,0.3604,1.2148,0.7949,1.5361c0.5811,0.4346,1.375,0.6514,2.3828,0.6514
				c1.085,0,1.9219-0.2168,2.5127-0.6514c0.5898-0.4336,0.9893-1.041,1.1982-1.8223c0.1211-0.4775,0.1777-1.4805,0.1689-3.0078
				c-1.0244,1.2061-2.3008,1.8096-3.8281,1.8096c-1.9014,0-3.3721-0.6855-4.4141-2.0576c-1.042-1.3711-1.5625-3.0156-1.5625-4.9346
				c0-1.3193,0.2383-2.5366,0.7158-3.6523c0.4775-1.1152,1.1699-1.9771,2.0771-2.5845c0.9072-0.6079,1.9727-0.9116,3.1963-0.9116
				c1.6318,0,2.9775,0.6597,4.0371,1.979v-1.6665h2.1611v11.9531c0,2.1523-0.2197,3.6787-0.6572,4.5771
				c-0.4385,0.8984-1.1328,1.6074-2.084,2.1289c-0.9502,0.5205-2.1201,0.7812-3.5088,0.7812c-1.6494,0-2.9814-0.3711-3.9971-1.1133
				S610.8525,69.6386,610.8877,68.1454z M612.8281,59.8383c0,1.8149,0.3594,3.1382,1.0801,3.9712
				c0.7207,0.834,1.623,1.25,2.709,1.25c1.0762,0,1.9785-0.4141,2.708-1.2432c0.7295-0.8291,1.0938-2.1289,1.0938-3.8999
				c0-1.6924-0.376-2.9688-1.126-3.8281c-0.751-0.8594-1.6562-1.2891-2.7148-1.2891c-1.042,0-1.9277,0.4233-2.6562,1.2695
				C613.1924,56.9154,612.8281,58.1718,612.8281,59.8383z"/>
		</g>
		<path fill="none" stroke="#BFBFBF" stroke-width="6" stroke-miterlimit="8" d="M835.0635,87c0-55.333-84.334-83-253-83
			s-253,20.888-253,62.665"/>
		<path fill-rule="evenodd" clip-rule="evenodd" fill="#666666" stroke="#666666" stroke-width="2.5747" stroke-miterlimit="8" d="
			M330.0635,85.5l-7.5-23h15L330.0635,85.5z"/>
	</g>
</g>
</svg>
